<svg width="216" height="55" viewBox="0 0 216 55" fill="none" xmlns="http://www.w3.org/2000/svg">
<path fill-rule="evenodd" clip-rule="evenodd" d="M104.754 12.0252C102.34 17.073 99.0186 24.2351 97.3734 27.9409L94.3813 34.6801L96.1914 35.6206C97.1864 36.1375 98.1975 36.3355 98.438 36.0609C98.6786 35.7863 100.831 31.2537 103.222 25.9887C105.612 20.7237 108.734 14.0654 110.159 11.193C111.584 8.32 112.75 5.84846 112.75 5.69949C112.75 5.55111 111.939 4.84872 110.947 4.13855L109.143 2.84863L104.754 12.0252ZM117.273 4.87983C115.876 7.02709 108.295 23.0056 105.703 29.2661L103.355 34.9367L105.224 36.2332C106.252 36.9464 107.131 37.4908 107.177 37.443C107.223 37.3951 108.668 33.8562 110.389 29.5784C113.618 21.5518 117.405 13.4737 120.126 8.8076C121.601 6.27863 121.629 6.08598 120.642 5.23402C118.693 3.55282 118.172 3.49778 117.273 4.87983ZM68.1697 5.07308C55.7678 7.77675 46.6574 16.9749 46.6563 26.794C46.6557 31.1555 47.6691 33.3489 50.4457 34.9972C53.2496 36.661 57.2058 36.4133 61.4311 34.3091L65.0085 32.5274L63.7831 34.9421C63.1096 36.2697 61.9056 38.3954 61.1083 39.665L59.6584 41.9738L61.6424 43.6544C62.7333 44.5788 63.8021 45.1549 64.0171 44.9353C64.2326 44.7152 65.1258 42.7857 66.0023 40.6468C67.9506 35.8946 71.5382 29.1704 75.0692 23.6542L77.7123 19.5242L76.0278 17.8382L74.3439 16.1522L68.6872 16.8037C61.2643 17.6593 61.5418 17.5319 61.5418 20.074V22.2733L65.7099 21.9221C68.0024 21.7289 69.8781 21.7881 69.8781 22.0525C69.8781 22.3176 68.5294 23.8019 66.8812 25.3509C61.6353 30.2814 55.3361 32.0715 53.0805 29.2727C49.4822 24.8083 55.9934 14.4752 64.3958 11.3162C66.2613 10.615 70.0091 9.74273 72.7243 9.37777C76.5494 8.86324 77.5885 8.52461 77.3396 7.87247C77.1627 7.41 76.8567 6.38333 76.6584 5.59119C76.3577 4.38684 75.9433 4.15889 74.1307 4.19838C72.9381 4.2247 70.2556 4.61838 68.1697 5.07308ZM90.412 13.2056C80.4699 18.5561 74.0462 26.0001 74.0462 32.1714C74.0462 37.7774 78.6901 37.8648 85.895 32.3934L87.7033 31.0203L86.8292 33.1221C86.3487 34.278 85.9551 35.3603 85.9551 35.5266C85.9551 35.8916 89.5891 37.8265 89.7546 37.5501C89.8184 37.4436 90.5061 35.7408 91.2826 33.7665C92.0596 31.7921 94.1931 27.0812 96.0235 23.2982C97.8545 19.5146 99.4366 16.2324 99.5396 16.0038C99.642 15.7759 98.9454 15.183 97.9909 14.687C96.7345 14.0343 96.0747 13.9661 95.6037 14.4393C95.1327 14.9126 94.8433 14.6559 94.5575 13.5114C94.0794 11.5956 93.4851 11.552 90.412 13.2056ZM123.641 14.3735C118.334 17.0126 113.883 24.1944 113.475 30.775C113.169 35.7145 114.012 36.7717 118.211 36.7148C121.851 36.6652 125.248 35.1264 127.893 32.3294L129.638 30.4837L128.248 28.9975L126.858 27.5107L124.536 29.6191C121.379 32.4849 119.597 33.2627 118.425 32.2857C117.211 31.2734 117.292 30.1073 118.8 26.8861C119.999 24.326 120.081 24.2674 120.467 25.6896C120.988 27.6047 122.607 27.4796 127.019 25.1816C132.739 22.2027 135.653 16.9922 133.057 14.3843C131.377 12.6959 127.024 12.6905 123.641 14.3735ZM138.857 17.4631C138.133 19.1909 135.759 24.1609 133.582 28.5081L129.625 36.4121L131.694 37.2407L133.762 38.07L135.728 34.1213C138.488 28.5781 143.87 23.2737 150.344 19.7168L153.165 18.1667L151.948 16.2354L150.731 14.3041L148.562 15.6239C147.369 16.3502 145.484 17.627 144.372 18.4622L142.351 19.9801L143.336 18.0667C144.318 16.1576 144.317 16.1516 142.558 15.238C141.588 14.7343 140.655 14.322 140.484 14.322C140.313 14.322 139.582 15.7352 138.857 17.4631ZM152.062 24.2046L147.213 34.2642L148.688 35.7456L150.163 37.2276L154.976 33.8383C157.624 31.974 159.79 30.5961 159.79 30.7762C159.79 31.4445 155.627 39.3114 152.696 44.1827C151.03 46.9498 149.668 49.4219 149.668 49.6762C149.668 49.9299 150.455 50.7011 151.417 51.3897L153.167 52.6413L155.38 48.5885C160.932 38.4212 166.09 29.3068 167.972 26.3375C169.87 23.3425 169.995 22.8543 169.627 19.8951L169.229 16.6937L163.37 22.2386C160.148 25.2881 156.63 28.3023 155.553 28.9359L153.594 30.0888L154.987 27.7393C155.753 26.4476 157.318 23.6835 158.467 21.5972L160.554 17.8047L158.733 15.9745L156.911 14.1449L152.062 24.2046ZM92.0066 19.8831C88.2726 24.5983 80.8831 31.6725 79.6916 31.6725C77.286 31.6725 79.6618 27.08 84.0169 23.3107C87.2603 20.5036 94.4605 15.5318 94.8106 15.8573C94.932 15.9703 93.6703 17.782 92.0066 19.8831ZM129.423 17.8077C129.423 18.8218 126.621 20.8931 124.047 21.7821L121.384 22.7011L124.178 20.0076C126.663 17.6114 129.423 16.4537 129.423 17.8077Z" fill="#1C18E2"/>
</svg>
