<svg width="216" height="55" viewBox="0 0 216 55" fill="none" xmlns="http://www.w3.org/2000/svg">
<path d="M64.8559 34.6655C67.8009 34.2907 70.18 31.9031 70.5557 28.9451C70.6869 27.9355 70.5853 26.9091 70.2586 25.9452C69.9319 24.9813 69.3889 24.1056 68.6716 23.3856C67.9542 22.6657 67.0817 22.1207 66.1212 21.7929C65.1608 21.465 64.1381 21.363 63.1321 21.4946C60.1848 21.8718 57.8058 24.2594 57.4324 27.2151C57.3012 28.2247 57.4028 29.251 57.7295 30.2149C58.0562 31.1789 58.5992 32.0546 59.3165 32.7745C60.0339 33.4945 60.9064 34.0394 61.8669 34.3673C62.8273 34.6951 63.85 34.7972 64.8559 34.6655ZM65.2575 15.6965C68.0929 15.996 70.7398 17.2634 72.7558 19.2866C74.7717 21.3099 76.0345 23.9664 76.333 26.812C77.1104 34.6844 70.5722 41.2462 62.7259 40.466C59.8909 40.166 57.2446 38.8984 55.2291 36.8752C53.2136 34.852 51.9511 32.1957 51.6527 29.3505C50.8754 21.4781 57.4136 14.9163 65.2575 15.6965ZM82.9886 16.1891H101.145C101.835 16.1891 102.225 16.981 101.809 17.5325L89.2474 34.1658H99.0899C100.884 34.1658 102.296 35.8039 101.925 37.6707C101.652 39.0401 100.372 39.9734 98.9819 39.9734H79.2639C78.5805 39.9734 78.193 39.1886 78.604 38.6441L91.1755 21.9967H83.0967C81.7064 21.9967 80.4264 21.061 80.154 19.6939C79.7806 17.8272 81.1944 16.1891 82.9886 16.1891ZM161.783 16.2551C163.657 15.8591 165.306 17.2827 165.306 19.0929V39.1343C165.306 39.8344 164.5 40.2233 163.955 39.7896L148.293 27.3188V37.0743C148.293 38.8845 146.644 40.3081 144.77 39.9122C143.427 39.6293 142.506 38.373 142.506 36.9966V17.0258C142.506 16.3258 143.312 15.9369 143.857 16.3705L159.521 28.8414V19.1707C159.521 17.7942 160.444 16.5403 161.785 16.2551H161.783ZM121.001 15.6328C130.59 15.6328 138.364 21.2047 138.364 28.0777C138.364 34.9507 130.59 40.5226 121.001 40.5226C111.412 40.5226 103.639 34.9507 103.639 28.0777C103.639 21.2047 111.412 15.6328 121.001 15.6328ZM121.001 21.4404C114.376 21.4404 109.426 24.9453 109.426 28.0777C109.426 31.2101 114.376 34.715 121.001 34.715C127.626 34.715 132.577 31.2125 132.577 28.0777C132.577 24.9429 127.626 21.4404 121.001 21.4404Z" fill="#005BFF"/>
</svg>
