<svg width="216" height="55" viewBox="0 0 216 55" fill="none" xmlns="http://www.w3.org/2000/svg">
<path d="M205.52 17.6566C205.52 21.4115 205.539 25.0355 205.501 28.6409C205.501 29.22 205.557 29.631 206.192 29.8551C207.033 30.1727 207.874 30.509 208.658 30.9386C209.051 31.1441 209.312 31.5924 209.63 31.9287C209.293 32.2463 209.013 32.732 208.621 32.8441C204.81 33.9649 205.595 34.7682 205.539 37.2901C205.539 37.5703 205.539 37.8318 205.539 38.1681C204.362 38.1681 203.26 38.1681 202.064 38.1681C202.064 37.0472 201.859 35.9077 202.139 34.9176C202.326 34.2451 203.185 33.6847 203.82 33.2177C204.25 32.9001 204.866 32.8254 205.37 32.6012C206.043 32.3023 206.136 31.7606 205.557 31.3122C205.072 30.9386 204.511 30.6584 203.951 30.3969C202.587 29.8178 201.933 28.8651 202.027 27.3519C202.12 25.9322 202.045 24.5125 201.821 23.018C200.794 25.5212 199.748 28.0058 198.701 30.565C198.926 30.7145 199.131 30.8639 199.337 30.976C200.177 31.4617 200.252 32.2836 199.355 32.4704C197.375 32.8627 197.132 34.488 196.516 35.889C196.497 35.9451 196.46 36.0011 196.441 36.0571C195.563 38.2801 195.563 38.2615 193.172 38.2428C192.63 38.2428 192.331 38.0933 192.126 37.5703C191.491 35.9637 190.8 34.3759 190.127 32.7693C189.081 33.199 188.072 33.5913 187.082 34.0209C186.279 34.3759 185.774 34.8989 185.868 35.889C185.943 36.6176 185.887 37.3648 185.887 38.1681C184.691 38.1681 183.589 38.1681 182.412 38.1681C182.412 37.1406 182.3 36.1319 182.431 35.1605C182.58 34.0209 183.439 33.4045 184.504 33.1616C185.233 32.9935 185.98 32.9748 186.708 32.788C187.25 32.6386 187.773 32.3584 188.296 32.1342C188.296 32.0221 188.315 31.8913 188.315 31.7793C187.624 31.5364 186.914 31.3122 186.223 31.032C185.083 30.5837 183.944 30.1167 182.842 29.5749C182.617 29.4628 182.412 29.0332 182.412 28.7343C182.393 25.1476 182.393 21.5796 182.393 17.9929C182.393 17.8995 182.431 17.8248 182.468 17.694C184.205 17.694 185.943 17.694 187.699 17.694C189.118 21.1686 190.594 24.6245 191.958 28.1178C192.331 29.0706 192.873 29.7244 193.826 30.0046C195.302 30.4342 196.796 30.8079 198.272 31.2188C198.328 31.0881 198.365 30.976 198.421 30.8452C197.749 30.509 197.114 30.1167 196.422 29.8178C195.657 29.5002 195.507 29.1079 195.862 28.3233C197.263 25.0729 198.627 21.8038 199.953 18.516C200.233 17.8061 200.607 17.6193 201.317 17.638C202.699 17.694 204.063 17.6566 205.52 17.6566ZM186.073 22.9433C185.999 22.9433 185.943 22.962 185.868 22.962C185.868 24.6059 185.812 26.2311 185.905 27.875C185.924 28.3607 186.204 28.9958 186.578 29.2947C187.306 29.8551 188.184 30.2101 189.006 30.6584C189.062 30.5837 189.118 30.5276 189.174 30.4529C188.147 27.931 187.101 25.4465 186.073 22.9433Z" fill="black"/>
<path d="M143.372 38.206C141.821 38.206 140.439 38.2247 139.075 38.1873C138.795 38.1873 138.422 37.9818 138.253 37.7577C136.759 35.7401 135.302 33.6853 133.826 31.6491C133.695 31.4809 133.695 31.2007 133.565 31.07C133.191 30.6964 132.78 30.0986 132.35 30.0612C130.856 29.9304 129.324 30.0052 127.811 30.0986C129.455 31.4436 131.697 30.8458 133.471 32.0227C132.631 32.2282 131.771 32.3589 130.968 32.6391C129.81 33.0128 128.614 33.4051 127.531 33.9655C126.765 34.3578 126.373 35.1237 126.485 36.0764C126.559 36.7489 126.503 37.4401 126.503 38.1873C125.196 38.1873 123.944 38.1873 122.599 38.1873C122.599 37.1412 122.487 36.0951 122.618 35.105C122.767 34.0028 123.589 33.4237 124.617 33.1248C125.233 32.938 125.887 32.826 126.503 32.6018C126.84 32.4897 127.12 32.2282 127.587 31.9293C126.373 31.3502 125.326 30.8084 124.243 30.3601C123.029 29.837 122.487 29.1085 122.543 27.6701C122.674 24.3823 122.58 21.0758 122.58 17.7319C122.879 17.6946 123.103 17.6572 123.346 17.6572C127.493 17.6572 131.622 17.6572 135.769 17.7133C136.684 17.7319 137.637 17.8627 138.534 18.0869C141.467 18.7967 142.868 20.6275 142.868 23.6537C142.868 26.3251 141.691 28.3239 139.318 29.5382C138.814 29.7997 138.16 29.7623 137.562 29.9865C140.252 31.2007 143.129 31.5183 146.062 31.948C145.502 32.7512 144.717 32.7139 143.988 32.7699C143.335 32.826 142.662 32.7512 142.046 32.882C140.738 33.1435 140.383 34.1149 141.168 35.1984C141.859 36.1138 142.569 37.0852 143.372 38.206ZM126.541 26.8108C128.726 26.8108 130.837 26.8295 132.948 26.7921C134.218 26.7734 135.507 26.736 136.759 26.5492C138.216 26.3438 138.963 25.3537 138.963 23.8779C138.963 22.4208 138.291 21.5428 136.871 21.2066C136.385 21.0945 135.881 21.0384 135.395 21.0198C133.098 20.9824 130.781 20.9637 128.483 20.945C127.848 20.945 127.194 20.945 126.522 20.945C126.541 22.9439 126.541 24.8119 126.541 26.8108Z" fill="black"/>
<path d="M54.3583 38.1495C54.3583 37.2715 54.2649 36.3935 54.377 35.5528C54.5078 34.6001 55.2737 34.0584 56.133 33.7968C57.011 33.5166 57.945 33.3859 58.8417 33.1617C59.5516 32.9749 60.2615 32.7694 60.9526 32.5639C60.9526 32.4518 60.9526 32.3398 60.9526 32.2463C60.0186 32.0595 59.0659 31.9475 58.1505 31.6859C57.1418 31.4057 56.133 31.1068 55.2177 30.6024C54.788 30.3596 54.3397 29.6684 54.3397 29.1827C54.2649 25.3905 54.3023 21.5984 54.3023 17.7314C60.2988 17.7314 66.2206 17.7314 72.2358 17.7314C72.2358 18.7776 72.2358 19.8424 72.2358 21.0379C67.6216 21.0379 62.9702 21.0379 58.2626 21.0379C58.2626 22.7005 58.2626 24.251 58.2626 25.8949C62.279 25.8949 66.2766 25.8949 70.3303 25.8949C70.3303 27.0718 70.3303 28.1366 70.3303 29.3135C66.3887 29.3135 62.5031 29.3135 58.6176 29.3135C60.523 30.7332 63.1196 30.453 65.0624 32.3211C62.8581 33.1243 60.7845 33.8529 58.7296 34.6001C58.7483 34.6748 58.767 34.7496 58.7857 34.843C63.4372 34.843 68.07 34.843 72.7215 34.843C72.7215 36.0012 72.7215 37.0473 72.7215 38.1681C66.5755 38.1495 60.5043 38.1495 54.3583 38.1495Z" fill="black"/>
<path d="M31.6806 17.6362C33.0443 17.6362 34.2959 17.6176 35.5288 17.6362C39.1342 17.6923 42.7396 17.6549 46.345 17.8417C49.2031 17.9912 51.0151 19.523 51.6503 21.8954C52.4162 24.7909 51.5195 27.8359 49.2778 29.293C48.4933 29.7974 47.4471 29.9842 46.4757 30.1523C45.4109 30.3204 44.3088 30.3017 43.2253 30.3391C42.1418 30.3578 41.0583 30.3391 39.9562 30.4138C42.6462 31.3105 45.6164 30.582 48.2691 31.7402C48.2878 31.8522 48.2878 31.9643 48.3064 32.0764C47.1856 32.3006 46.0648 32.5434 44.9439 32.7489C43.0198 33.0852 41.077 33.3467 39.1529 33.7016C37.976 33.9258 36.8552 34.4675 36.2387 35.5323C35.8091 36.2609 35.6409 37.1576 35.3234 38.129C34.3333 38.129 33.119 38.129 31.8861 38.129C31.2696 36.1488 32.3531 34.7291 33.8663 34.1873C35.6036 33.5522 37.4343 33.1973 39.2463 32.805C40.5166 32.5247 41.8056 32.394 43.1506 31.9643C42.7583 31.7775 42.3847 31.4973 41.9737 31.4413C40.2551 31.2171 38.5178 31.0863 36.7805 30.9182C35.2113 30.7688 33.7168 30.4325 32.4465 29.4238C31.9235 29.0128 31.6619 28.5644 31.6806 27.8546C31.6993 24.492 31.6806 21.1482 31.6806 17.6362ZM35.6223 26.6777C38.9287 26.6777 42.1231 26.7337 45.3362 26.659C47.0922 26.603 47.9328 25.6316 47.9515 24.0064C47.9702 22.269 47.2416 21.2603 45.4296 21.1856C42.2352 21.0361 39.0221 21.1108 35.8277 21.0735C35.7717 21.0735 35.7343 21.1295 35.6409 21.2042C35.6222 22.9976 35.6223 24.8283 35.6223 26.6777Z" fill="black"/>
<path d="M27.9864 30.9189C24.8107 30.5079 21.7657 30.1716 18.7208 29.7233C16.423 29.387 14.1066 29.0508 11.8649 28.4343C9.13756 27.7058 7.66178 25.8377 7.53102 23.4466C7.40025 20.9247 8.96943 18.6643 11.6221 17.8797C15.6011 16.7028 19.5988 16.7215 23.4843 18.3281C25.4458 19.1313 26.8469 20.495 27.5194 22.6433C26.3425 23.0356 25.1656 23.4279 23.9327 23.8575C22.6063 20.9247 19.9724 20.5137 17.245 20.495C15.9373 20.4763 14.611 20.7939 13.3034 21.0181C12.9297 21.0928 12.5561 21.3357 12.2572 21.5785C11.1364 22.4565 11.2485 24.007 12.5561 24.4927C13.8825 24.9784 15.3022 25.2212 16.7032 25.4828C18.2537 25.7817 19.8416 25.9685 21.3921 26.2487C24.1942 26.7531 26.6787 27.7805 27.9864 30.9189Z" fill="black"/>
<path d="M110.644 38.1852C109.299 38.1852 108.067 38.1852 106.721 38.1852C106.721 37.1952 106.628 36.2424 106.74 35.3084C106.89 34.2623 107.674 33.6271 108.646 33.3283C109.71 33.0107 110.831 32.8799 111.915 32.5997C112.419 32.4689 112.886 32.2448 113.372 32.058C113.391 31.9272 113.391 31.8151 113.409 31.6844C112.456 31.4228 111.504 31.1613 110.551 30.9371C109.953 30.7877 109.337 30.713 108.739 30.5262C107.338 30.1152 106.703 29.2372 106.703 27.7988C106.703 25.5944 106.703 23.3901 106.703 21.055C103.714 21.055 100.762 21.055 97.7734 21.055C97.7734 19.8782 97.7734 18.7947 97.7734 17.6738C105.04 17.6738 112.27 17.6738 119.555 17.6738C119.555 18.776 119.555 19.8221 119.555 20.9803C116.641 20.9803 113.689 20.9803 110.626 20.9803C110.626 22.0825 110.626 23.0726 110.626 24.0439C110.626 25.2956 110.626 26.5285 110.626 27.7801C110.626 28.9943 110.981 29.5548 112.12 29.9284C112.849 30.1712 113.633 30.302 114.362 30.5075C114.773 30.6196 115.203 30.7503 115.557 30.9932C116.323 31.5162 116.23 32.4876 115.371 32.8239C114.829 33.048 114.231 33.1414 113.671 33.2909C113.26 33.403 112.83 33.5151 112.438 33.6832C111.261 34.2062 110.383 34.9535 110.607 36.4479C110.7 37.0084 110.644 37.5501 110.644 38.1852Z" fill="black"/>
<path d="M156.394 17.6738C157.757 17.6738 158.99 17.6738 160.317 17.6738C160.317 18.365 160.317 19.0002 160.317 19.654C160.317 22.5495 160.317 25.445 160.317 28.3405C160.317 29.5921 160.765 30.2086 161.998 30.5448C162.596 30.713 163.231 30.7316 163.81 30.9371C164.296 31.1053 164.744 31.4228 165.435 31.8151C164.501 32.2261 163.829 32.4316 163.231 32.7865C162.951 32.9546 162.633 33.3843 162.652 33.6832C162.67 34.0194 162.988 34.5425 163.287 34.6359C165.996 35.5326 168.723 35.626 171.357 34.3931C173.262 33.4964 175.28 33.3096 177.335 32.8986C176.083 36.1117 173.804 37.849 170.535 38.4281C167.882 38.8764 165.286 38.8577 162.67 38.2413C160.373 37.6995 158.579 36.4666 157.477 34.3557C157.29 34.0008 157.403 33.4964 157.365 33.0667C157.309 32.4129 157.44 31.6657 157.141 31.1239C156.599 30.0965 156.338 29.0877 156.356 27.9295C156.412 24.5296 156.394 21.1484 156.394 17.6738Z" fill="black"/>
<path d="M80.0078 31.4801C78.1771 31.1812 76.4398 30.7702 74.964 29.612C74.7211 29.4252 74.4409 29.089 74.4222 28.8088C74.1234 25.0166 75.0761 21.0002 78.8309 18.908C83.4077 16.3674 88.1526 16.3301 92.8041 18.8146C94.7095 19.842 96.0732 21.9156 96.5589 24.176C95.3446 24.176 94.1491 24.1946 92.9535 24.1573C92.8041 24.1573 92.6172 23.9892 92.5425 23.8584C91.6085 21.9903 89.9833 21.075 88.0405 20.7574C85.4252 20.3277 82.8846 20.5519 80.699 22.2892C78.8309 23.765 77.6914 27.5758 78.5507 29.7802C78.8309 30.4153 79.4847 30.8636 80.0078 31.4801Z" fill="black"/>
<path d="M147.48 38.1683C147.48 31.3311 147.48 24.55 147.48 17.7129C148.732 17.7129 149.984 17.7129 151.347 17.7129C151.347 18.5162 151.347 19.3008 151.347 20.104C151.347 22.7754 151.366 25.4654 151.329 28.1367C151.31 29.2015 151.777 29.8367 152.711 30.1916C153.402 30.4531 154.149 30.6213 154.785 30.9949C155.177 31.219 155.588 31.7421 155.607 32.1344C155.607 32.4333 155.046 32.8629 154.654 33.0497C154.075 33.3113 153.384 33.3673 152.767 33.5728C151.796 33.9091 151.347 34.5816 151.329 35.609C151.329 36.4496 151.329 37.2716 151.329 38.1683C150.04 38.1683 148.807 38.1683 147.48 38.1683Z" fill="black"/>
<path d="M95.9592 32.1166C95.2867 31.7056 94.6142 31.2947 93.7362 30.7529C96.7998 30.809 99.6766 30.5848 102.46 31.9485C101.881 32.1913 101.302 32.4342 100.723 32.6584C99.2657 33.2001 97.8086 33.7045 96.3515 34.2649C95.9405 34.433 95.5108 34.6946 95.2493 35.0308C93.6428 36.9736 91.5505 38.001 89.122 38.4307C86.1518 38.9724 83.2002 39.0098 80.4542 37.7208C79.0905 37.0857 77.951 35.9462 76.7367 35.0121C76.2697 34.6385 76.3631 34.1528 76.8301 33.8352C77.3158 33.499 77.8576 33.2935 78.3806 33.0133C79.0718 32.6397 79.7443 32.2474 80.641 31.743C80.9959 32.154 81.7432 32.7144 81.986 33.443C82.453 34.8627 83.5365 35.0869 84.7134 35.2176C86.6562 35.4418 88.5056 35.1616 90.3363 34.3209C91.6439 33.7232 93.101 33.4243 94.4834 32.9759C94.9878 32.8078 95.4548 32.6023 95.9405 32.3968C95.9218 32.3034 95.9405 32.21 95.9592 32.1166Z" fill="black"/>
<path d="M6.74219 32.6578C10.6278 32.3029 14.3826 31.0139 18.2869 32.2095C16.7364 32.9754 14.5881 32.3963 13.6167 34.5632C14.1584 34.7314 14.6441 34.9369 15.1485 35.0116C17.6891 35.4412 20.1549 35.3292 22.6581 34.4138C24.5262 33.7226 26.5998 33.5919 28.636 33.1996C27.9261 34.1336 27.3283 34.9555 26.6932 35.7401C25.5723 37.1412 24.0218 37.8511 22.3219 38.2247C18.6978 39.0279 15.0925 39.0466 11.5992 37.6269C9.35749 36.7302 7.58282 35.3105 6.74219 32.6578Z" fill="black"/>
<path d="M179.671 30.713C177.803 30.6382 175.954 30.4141 174.329 29.3866C174.067 29.2185 173.824 28.8262 173.824 28.5273C173.787 25.0527 173.805 21.5594 173.805 18.0848C173.805 17.9727 173.843 17.842 173.88 17.6738C175.132 17.6738 176.365 17.6738 177.71 17.6738C177.71 18.0288 177.71 18.3463 177.71 18.6826C177.71 21.6902 177.71 24.7165 177.71 27.724C177.71 29.7042 177.897 29.9657 179.671 30.713Z" fill="black"/>
<path d="M36.5954 32.284C34.3911 32.6016 32.2054 32.9191 30.0011 33.2367C29.9824 33.162 29.9824 33.0873 29.9637 33.0125C30.8231 32.8071 31.6824 32.6016 32.5604 32.3961C32.579 32.3027 32.5977 32.2279 32.6164 32.1345C31.3461 31.7796 30.0945 31.4247 28.8242 31.0697C28.8429 30.995 28.8616 30.9203 28.8616 30.8643C31.4395 31.2005 34.0175 31.5554 36.5954 31.8917C36.5954 32.0225 36.5954 32.1532 36.5954 32.284Z" fill="black"/>
</svg>
