<svg width="216" height="54" viewBox="0 0 216 54" fill="none" xmlns="http://www.w3.org/2000/svg">
<path d="M76.006 46.5327C77.3358 46.4837 78.3896 46.4444 80.1525 46.4468H80.177C81.4921 46.4493 82.8317 46.5131 84.1321 46.6701C84.0278 47.335 83.845 48.0073 83.6021 48.6722C83.369 49.3371 83.0832 50.0008 82.6992 50.6841C81.3179 50.792 79.9268 50.8435 78.6043 50.8399C78.0253 50.8399 77.2831 50.8276 76.2833 50.8092L75.5963 52.7512H73.793L76.006 46.5315V46.5327ZM81.3338 49.5996C81.4933 49.2807 81.6209 48.9862 81.7362 48.6697C81.8503 48.3594 81.9276 48.0564 81.9987 47.746C81.4516 47.6932 80.4003 47.665 79.7354 47.665C78.8619 47.665 78.1578 47.6896 77.3923 47.7202H77.3874L76.7127 49.6192L76.7225 49.6107C77.4585 49.6634 78.1406 49.672 79.0128 49.6744C79.8691 49.6769 80.5708 49.6524 81.3314 49.6008L81.3338 49.5996ZM85.9231 46.5327H87.7755L87.3585 47.6859C86.9352 48.8856 86.4825 50.2314 86.1121 51.4312C86.7622 51.5269 87.486 51.5465 88.1706 51.5465C88.8539 51.5489 89.5899 51.5342 90.3051 51.4398C90.4352 51.1895 90.548 50.9405 90.6437 50.6988H92.4679C92.2103 51.3563 91.9318 51.9685 91.5797 52.6677C90.2426 52.8113 88.9667 52.8518 87.7032 52.8493C86.4151 52.8468 85.2043 52.8002 83.9616 52.653C84.4093 51.046 84.9724 49.288 85.5404 47.6822L85.9207 46.5339L85.9231 46.5327ZM98.0668 46.5646C98.149 46.5487 98.8986 46.4665 100.03 46.4665H100.3C101.036 46.4689 101.698 46.4873 102.456 46.5585L103.175 52.7499H101.359L101.194 51.4422L95.8611 51.4324L94.7754 52.7499H92.9598L97.4473 47.308L98.0693 46.5658L98.0668 46.5646ZM98.9047 47.8036L96.8928 50.202L101.033 50.2093L100.739 47.8098C100.534 47.7926 100.122 47.773 99.8358 47.773C99.5487 47.773 99.139 47.7889 98.9035 47.8061L98.9047 47.8036ZM106.725 46.5205L111.056 46.5303C112.362 46.5327 114.012 46.5548 115.283 46.7192C115.17 47.3326 115.053 47.9091 114.835 48.5225C114.578 49.2402 114.288 49.9824 113.852 50.743C113.199 50.7748 112.463 50.8337 111.751 50.8583L113.469 52.7524H111.162L108.529 49.8855L108.59 49.7051H109.547C110.62 49.7076 111.555 49.7014 112.495 49.6585C112.654 49.3224 112.798 48.9961 112.915 48.6587C113.03 48.3312 113.112 48.0551 113.185 47.7349C112.351 47.6981 111.573 47.6981 110.631 47.6981L108.141 47.692L106.338 52.7512H104.529L106.725 46.5192V46.5205ZM117.529 46.5327H119.333L117.117 52.7524H115.302L117.529 46.5327ZM121.59 46.5597H123.418L123.029 47.6638C122.587 48.8905 122.164 50.2449 121.795 51.4545C122.592 51.5563 123.445 51.5747 124.275 51.5735C125.097 51.5735 125.972 51.5538 126.824 51.4508C127.331 50.2412 127.843 48.8869 128.284 47.6601L128.671 46.5597H130.521L130.133 47.6577C129.563 49.2574 128.796 50.9662 128.173 52.5561C126.67 52.7892 125.224 52.8689 123.815 52.8702C122.397 52.8702 121.008 52.7941 119.657 52.5635C120.08 50.9736 120.616 49.2549 121.185 47.665L121.587 46.5609L121.59 46.5597ZM132.488 46.583C133.672 46.5217 134.927 46.4702 136.856 46.4505C136.926 46.4505 137.015 46.4419 137.083 46.4419H137.543C139.228 46.4419 140.895 46.5082 142.529 46.6873C141.941 48.6059 141.205 50.8337 140.527 52.7524H138.712C139.247 51.2226 139.877 49.3763 140.335 47.8454C139.574 47.7963 138.784 47.7619 137.999 47.7448L136.232 52.7499H134.407L136.174 47.7448C135.368 47.7644 134.549 47.7987 133.757 47.8515C133.135 49.3788 132.46 51.2202 131.925 52.7487H130.11C130.645 51.2189 131.302 49.4769 131.95 47.8711C132.08 47.5485 132.49 46.583 132.49 46.583H132.488ZM136.744 11.0549C136.97 11.4082 136.965 11.6437 136.933 11.8008H136.928C136.921 11.8376 136.91 11.8744 136.899 11.9112C136.739 12.3528 136.212 12.8386 135.423 13.2582C133.117 14.4788 130.08 15.6994 126.373 16.8943V16.8611C126.355 15.6835 125.22 14.7977 122.588 13.9194C105.389 8.16588 91.2571 13.2545 86.2127 16.2551C87.7878 11.7186 89.8905 6.77597 91.2031 6.03378C98.1735 2.09098 107.686 0.529319 117.299 1.75362C126.34 2.90432 133.791 6.46928 136.743 11.0549H136.744ZM135.986 15.0578C134.683 19.3539 132.959 24.3566 131.99 25.4313C128.801 28.9717 98.3158 35.9421 81.405 27.7866C91.0743 26.5476 122.354 22.1104 135.986 15.0578Z" fill="black"/>
<path d="M106.336 13.1475L102.996 22.5113C102.374 22.6266 101.749 22.7419 101.116 22.8548C97.9196 23.435 94.8478 23.9466 92.0458 24.3846C89.1446 23.1578 85.2827 20.8233 85.1797 19.4358L85.192 19.3953C85.6876 18.5636 89.5617 15.9445 96.2487 14.357C98.9451 13.7154 102.368 13.1794 106.338 13.1475H106.336ZM99.3512 33.3767L97.1884 39.6454H88.1472L90.6437 32.5216C93.5732 33.0369 96.5358 33.2945 99.3512 33.3804" fill="black"/>
</svg>
