<svg width="216" height="55" viewBox="0 0 216 55" fill="none" xmlns="http://www.w3.org/2000/svg">
<path fill-rule="evenodd" clip-rule="evenodd" d="M23.298 42.3779V38.7697H14.5226V42.3779H11.4375V35.7062H12.9458C13.4942 34.9573 14.7968 32.0299 15.0025 27.4005L15.1396 24.5412H24.4635V35.6381H26.3831V42.3098H23.298V42.3779ZM21.1727 27.6729H18.2933L18.0876 30.0556C17.8819 32.5065 17.0592 35.0935 16.5793 35.7743H21.2413V27.6729H21.1727ZM40.4375 38.7697V29.9875L34.1302 38.7697H31.3193V24.6093H34.5415V33.3915L40.8488 24.6093H43.7283V38.7697H40.4375ZM56.48 31.3491C58.194 31.9618 58.811 33.1873 58.811 34.7531C58.811 37.3401 56.2744 38.974 53.7377 38.974C50.8583 38.974 49.4186 37.5443 48.6644 36.455L50.4469 34.2765C51.2696 35.2296 52.5037 35.9785 53.6692 35.9785C54.5604 35.9785 55.6573 35.6381 55.6573 34.4808C55.6573 33.6638 54.9718 33.0511 53.4635 33.0511H52.1609V30.0556H53.3949C54.3547 30.0556 55.1774 29.6471 55.1774 28.7621C55.1774 27.8771 54.4919 27.4686 53.6006 27.4686C52.6408 27.4686 51.8181 27.8771 51.064 28.9664L49.0758 26.7197C49.967 25.4262 51.8181 24.4051 53.8748 24.4051C56.4115 24.4051 58.2625 25.8347 58.2625 28.4217C58.2625 29.3748 57.7826 30.5322 56.48 31.3491ZM72.7968 38.7697L71.6313 35.7743H66.0096L64.8441 38.7697H61.5533L67.4493 24.6093H70.3287L76.2247 38.7697H72.7968ZM68.8205 28.7621L67.2436 32.7788H70.3973L68.8205 28.7621ZM89.2507 38.7697V29.9875L82.9434 38.7697H80.0639V24.6093H83.3547V33.3915L89.6621 24.6093H92.4729V38.7697H89.2507ZM107.076 38.7697V33.0511H101.865V38.7697H98.5746V24.6093H101.865V30.0556H107.076V24.6093H110.367V38.7697H107.076ZM128.054 38.7697V29.7833L124.078 35.2977H123.598L119.622 29.8514V38.7697H116.4V24.6093H119.69L124.078 30.6003L128.26 24.6093H131.345V38.7697H128.054ZM145.948 38.7697L144.783 35.7743H139.161L137.995 38.7697H134.705L140.601 24.6093H143.48L149.376 38.7697H145.948ZM141.972 28.7621L140.395 32.7788H143.617L141.972 28.7621ZM158.7 27.4005C156.506 27.4005 154.723 28.8983 154.723 31.6895C154.723 34.2084 156.437 35.9785 159.043 35.9785C160.071 35.9785 161.168 35.6381 162.128 34.9573L163.362 37.4082C162.539 38.3613 160.688 39.0421 158.7 39.0421C154.312 39.0421 151.227 36.1147 151.227 31.7576C151.227 27.6729 153.764 24.4731 158.7 24.4731C160.619 24.4731 162.196 25.0859 163.019 25.9709L161.579 28.4217C160.825 27.809 160.002 27.4005 158.7 27.4005ZM171.726 27.6729V38.7697H168.504V27.6729H164.253V24.6093H176.045V27.6729H171.726ZM188.18 35.7062V38.7697H179.541V24.6093H187.974V27.6729H182.764V30.1237H187.357V33.1192H182.764V35.7062H188.18ZM198.532 34.0042C198.258 34.0042 197.435 34.0042 196.955 33.9361V38.7017H193.733V24.6093C194.556 24.6093 196.955 24.5412 198.121 24.5412C202.44 24.5412 203.88 26.7878 203.88 29.2387C203.811 31.7576 201.823 34.0042 198.532 34.0042ZM198.395 27.6048C197.984 27.6048 197.641 27.6048 196.955 27.6729V30.8726C197.435 30.9406 197.984 30.9406 198.463 30.9406C199.286 30.9406 200.383 30.6003 200.383 29.2387C200.383 28.0132 199.56 27.6048 198.395 27.6048ZM85.9599 22.8392C86.7826 22.8392 87.4682 22.1585 87.4682 21.3415C87.4682 20.5246 86.7826 19.8438 85.9599 19.8438C85.1372 19.8438 84.4517 20.5246 84.4517 21.3415C84.4517 22.1585 85.1372 22.8392 85.9599 22.8392ZM85.9599 13.4443C86.7826 13.4443 87.4682 14.1251 87.4682 14.9421C87.4682 15.759 86.7826 16.4398 85.9599 16.4398C85.1372 16.4398 84.4517 15.759 84.4517 14.9421C84.4517 14.1251 85.1372 13.4443 85.9599 13.4443ZM88.5651 16.6441C89.3878 16.6441 90.0734 17.3248 90.0734 18.1418C90.0734 18.9587 89.3878 19.6395 88.5651 19.6395C87.7424 19.6395 87.0569 18.9587 87.0569 18.1418C87.0569 17.3248 87.7424 16.6441 88.5651 16.6441Z" fill="#0080C8"/>
</svg>
