<svg width="216" height="54" viewBox="0 0 216 54" fill="none" xmlns="http://www.w3.org/2000/svg">
<path d="M190.237 14.498L182.108 26.3213L190.606 38.6371H185.557L179.399 29.6466L173.118 38.6371H168.191L176.689 26.3213L168.561 14.498H173.487L179.399 23.2423L185.31 14.498H190.237Z" fill="#F50029"/>
<path d="M162.65 17.5773C160.31 15.2373 157.231 14.1289 153.66 14.1289C149.965 14.1289 147.009 15.3605 144.669 17.7005C142.329 20.0405 141.098 22.9963 141.098 26.5679C141.098 30.2627 142.329 33.2185 144.669 35.5585C147.009 37.8985 150.088 39.0069 153.66 39.0069C157.231 39.0069 160.31 37.7754 162.65 35.4353C164.99 33.0953 166.222 30.1395 166.222 26.4448C166.222 22.8732 165.114 19.9174 162.65 17.5773ZM159.571 32.6027C158.094 34.2038 156.123 35.0659 153.66 35.0659C151.443 35.0659 149.472 34.2038 147.871 32.6027C146.27 31.0016 145.531 28.9079 145.531 26.5679C145.531 24.1048 146.27 22.0111 147.871 20.41C149.349 18.8089 151.32 18.07 153.66 18.07C156 18.07 157.847 18.8089 159.448 20.41C161.049 22.0111 161.788 23.9816 161.788 26.5679C161.788 29.0311 161.049 31.0016 159.571 32.6027Z" fill="#F50029"/>
<path d="M136.172 27.8003C135.433 26.815 134.324 26.1992 133.093 25.9529V25.8297C135.433 24.7213 136.541 22.8739 136.541 20.2876C136.541 18.4402 135.925 17.0855 134.57 15.977C133.339 14.8686 131.245 14.376 128.536 14.376C126.196 14.376 123.856 14.376 121.516 14.4991V38.5151C123.117 38.6382 125.334 38.6382 128.289 38.6382C130.999 38.6382 133.093 38.0224 134.817 36.7908C136.418 35.5593 137.28 33.7119 137.28 31.3719C137.28 30.0171 136.91 28.7855 136.172 27.8003ZM125.826 18.4402C126.565 18.3171 127.427 18.3171 128.536 18.3171C129.767 18.3171 130.629 18.5634 131.368 19.056C132.107 19.5486 132.354 20.2876 132.354 21.2729C132.354 22.3813 131.984 23.1202 131.368 23.6129C130.753 24.1055 129.89 24.475 128.782 24.475H125.949L125.826 18.4402ZM128.659 34.8203C127.797 34.8203 126.811 34.8203 125.826 34.6971V28.2929H128.782C130.137 28.2929 131.122 28.5392 131.861 29.0319C132.6 29.5245 132.969 30.2634 132.969 31.3719C133.093 33.7119 131.615 34.8203 128.659 34.8203Z" fill="#F50029"/>
<path d="M113.149 17.5773C110.685 15.2373 107.73 14.1289 104.035 14.1289C100.34 14.1289 97.3843 15.3605 95.0443 17.7005C92.7042 20.0405 91.4727 22.9963 91.4727 26.5679C91.4727 30.2627 92.7042 33.2185 95.0443 35.5585C97.3843 37.8985 100.463 39.0069 104.035 39.0069C107.606 39.0069 110.685 37.7754 113.025 35.4353C115.365 33.0953 116.597 30.1395 116.597 26.4448C116.72 22.8732 115.489 19.9174 113.149 17.5773ZM109.946 32.6027C108.469 34.2038 106.498 35.0659 104.035 35.0659C101.818 35.0659 99.8474 34.2038 98.2464 32.6027C96.6453 31.0016 95.9064 28.9079 95.9064 26.5679C95.9064 24.1048 96.6453 22.0111 98.2464 20.41C99.7243 18.8089 101.695 18.07 104.035 18.07C106.375 18.07 108.222 18.8089 109.823 20.41C111.424 22.0111 112.163 23.9816 112.163 26.5679C112.163 29.0311 111.424 31.0016 109.946 32.6027Z" fill="#F50029"/>
<path d="M81.8594 38.6371V14.498H86.0468V38.6371H81.8594Z" fill="#F50029"/>
<path d="M72.0066 32.2332C72.0066 31.6174 71.7603 31.0016 71.3908 30.509C71.0213 30.0164 70.4055 29.5237 69.7897 29.2774C69.1739 28.9079 68.435 28.5385 67.696 28.2921C66.9571 27.9227 66.095 27.5532 65.356 27.1837C64.6171 26.8142 63.8781 26.3216 63.2623 25.829C62.6465 25.3363 62.1539 24.5974 61.6613 23.7353C61.1686 22.75 61.0455 21.8879 61.0455 20.7795C61.0455 18.9321 61.7844 17.331 63.1392 16.0994C64.4939 14.7447 66.2181 14.1289 68.5582 14.1289C71.6371 14.1289 73.854 14.991 75.455 16.7152L73.2382 19.9174C72.0066 18.6858 70.5287 18.07 68.9276 18.07C67.9424 18.07 67.0803 18.3163 66.4645 18.8089C65.8487 19.3016 65.6023 19.9174 65.6023 20.7795C65.6023 21.5184 65.8487 22.2574 66.4645 22.8732C66.9571 23.489 67.696 23.8584 68.435 24.2279C69.2971 24.5974 70.1592 24.9669 71.0213 25.4595C72.0066 25.9521 72.8687 26.4448 73.6077 26.9374C74.4698 27.43 75.0856 28.169 75.5782 29.0311C76.0708 30.0164 76.4403 31.1248 76.4403 32.3564C76.4403 34.3269 75.7014 36.0511 74.1003 37.2827C72.4992 38.5143 70.6519 39.2533 68.3118 39.2533C66.7108 39.2533 65.1097 38.8838 63.5087 38.268C61.9076 37.6522 60.9223 36.6669 60.4297 35.4353L62.8929 32.4795C63.5087 33.3416 64.3708 34.0806 65.4792 34.4501C66.4645 34.9427 67.4497 35.189 68.435 35.189C69.4203 35.189 70.2824 34.9427 71.0213 34.4501C71.6371 33.8343 72.0066 33.0953 72.0066 32.2332Z" fill="#F50029"/>
<path d="M55.0116 14.498H50.8242V38.6371H55.0116V14.498Z" fill="#F50029"/>
<path d="M47.007 14.498L37.4006 38.7603H34.1985L24.2227 14.498H28.7795L35.9227 32.356L42.8196 14.498H47.007Z" fill="#F50029"/>
</svg>
