<svg width="216" height="55" viewBox="0 0 216 55" fill="none" xmlns="http://www.w3.org/2000/svg">
<path d="M104.554 22.5361C104.554 26.1537 104.486 29.7031 104.486 33.3207C104.486 34.9588 104.486 36.597 104.418 38.2352C104.418 38.3717 104.418 38.5082 104.418 38.7129C104.076 38.4399 103.803 38.2351 103.599 37.9621C101.551 36.1875 99.5033 34.4128 97.4556 32.6381C97.1826 32.4333 96.9778 32.3651 96.6365 32.5016C92.5411 33.7302 88.514 33.5937 84.8281 31.1365C81.8931 29.2253 80.1184 26.495 79.7089 22.9457C79.7089 22.8092 79.6406 22.6726 79.6406 22.5361C81.6883 22.5361 83.8043 22.5361 85.852 22.5361C85.852 22.6044 85.9202 22.6726 85.9202 22.8092C86.9441 26.9728 91.722 28.6792 95.3396 26.6315C96.9095 25.7442 97.9334 24.3108 98.3429 22.5361C100.391 22.5361 102.438 22.5361 104.554 22.5361Z" fill="#010101"/>
<path d="M79.5719 22.2358C79.1624 15.0689 84.7594 9.77048 91.039 9.4292C94.0423 9.29269 96.8409 9.77048 99.3664 11.4769C102.984 14.0024 104.69 17.7991 104.486 22.1676C104.486 22.7136 104.486 22.7136 104.076 22.7136C102.301 22.7136 100.458 22.7136 98.6838 22.7136C98.4108 22.7136 98.3425 22.5771 98.3425 22.3723C98.3425 22.2358 98.3425 22.1676 98.3425 22.031C98.479 19.4373 97.3869 17.1422 95.1344 15.9136C92.9502 14.685 90.6295 14.7532 88.4453 16.1183C86.2611 17.4835 85.442 19.9151 85.6468 22.4406C85.8577 22.8323 85.8577 22.7136 85.169 22.7136C83.5308 22.7136 81.8927 22.7136 80.2545 22.7136C79.5719 22.7136 79.5719 22.8323 79.5719 22.2358Z" fill="#0EA3D0"/>
<path d="M61.8242 10.043C64.0767 10.043 66.3974 10.043 68.6499 10.043C68.6499 11.6129 68.6499 13.1828 68.6499 14.7527C68.1721 14.7527 67.6943 14.7527 67.2165 14.7527C67.0117 14.7527 66.8752 14.7527 66.8752 15.094C66.8752 16.7321 66.8752 18.4385 66.8752 20.0767C66.8752 20.3497 66.9435 20.418 67.2165 20.418C67.8308 20.418 68.5134 20.418 69.1277 20.418C70.9706 20.3497 71.7897 19.7354 71.9945 18.2338C72.1992 16.1861 71.4484 15.094 69.5372 14.8892C69.2642 14.8892 68.9912 14.8209 68.6499 14.8209C68.6499 13.251 68.6499 11.6811 68.6499 10.1112C70.288 10.043 71.8579 10.1112 73.4278 10.589C76.0898 11.4764 77.5915 13.3193 78.001 16.1178C78.2058 17.6195 78.1375 19.1211 77.728 20.6227C77.1137 22.6022 75.8851 23.9673 73.9739 24.6499C72.2675 25.2642 70.4928 25.3325 68.7181 25.1959C67.9673 23.626 67.2847 22.0561 66.5339 20.4862C66.4657 20.3497 66.3974 20.2132 66.3292 20.0767C64.8958 16.6639 63.3941 13.3193 61.8242 10.043Z" fill="#010101"/>
<path d="M122.373 9.90625C125.786 14.4112 129.472 19.0526 132.953 23.6941C132.953 23.3528 132.953 23.2163 132.953 23.0115C132.953 18.8479 132.953 14.616 132.953 10.4523C132.953 10.0428 133.089 9.90625 133.499 9.90625C135 9.90625 136.57 9.90625 138.072 9.90625C138.277 9.90625 138.482 9.90625 138.482 10.2475C138.482 13.1143 138.482 16.0493 138.482 18.9161V18.9844C138.413 19.0526 138.277 19.0526 138.208 19.1209C135.546 21.5099 132.816 23.8989 130.154 26.3561C129.813 26.6974 129.335 26.9704 129.062 27.3799C128.516 26.9021 128.175 26.2878 127.697 25.7418C126.059 23.5576 124.421 21.4416 122.714 19.2574C122.646 19.1891 122.441 18.9844 122.373 18.9161C122.373 18.8479 122.373 18.7796 122.373 18.7114C122.373 15.9128 122.305 13.1826 122.305 10.384C122.373 10.3158 122.373 9.90625 122.373 9.90625Z" fill="#010101"/>
<path d="M107.219 21.3074C107.219 17.6898 107.219 14.1405 107.219 10.5229C107.219 10.1133 107.287 9.97682 107.697 10.0451C109.335 10.0451 111.041 10.0451 112.679 10.0451C113.021 10.0451 113.157 10.1133 113.157 10.4546C113.157 17.6898 113.157 24.925 113.157 32.2285C113.157 32.5698 113.089 32.638 112.748 32.638C111.041 32.638 109.403 32.638 107.697 32.638C107.287 32.638 107.219 32.5698 107.219 32.1602C107.219 28.5426 107.219 24.925 107.219 21.3074Z" fill="#020202"/>
<path d="M122.439 18.9872C122.439 23.3556 122.439 27.7241 122.439 32.0925C122.439 32.502 122.302 32.5703 121.961 32.5703C120.46 32.5703 118.89 32.5703 117.388 32.5703C117.047 32.5703 116.91 32.502 116.91 32.0925C116.91 24.789 116.91 17.5538 116.91 10.2504C116.91 9.90908 116.978 9.84082 117.32 9.84082C119.026 9.84082 120.664 9.84082 122.371 9.84082C122.371 12.5028 122.371 15.1648 122.371 17.8268C122.371 18.2364 122.439 18.6459 122.439 18.9872Z" fill="#CF172E"/>
<path d="M150.971 15.0254C150.971 20.6907 150.971 26.4925 150.971 32.2261C150.971 32.5673 150.903 32.7039 150.494 32.7039C148.787 32.7039 147.149 32.7039 145.443 32.7039C145.101 32.7039 144.965 32.6356 144.965 32.2261C144.965 26.5608 144.965 20.7589 144.965 15.0254C147.081 15.0254 148.992 15.0254 150.971 15.0254Z" fill="#020202"/>
<path d="M129.062 27.3799C129.336 26.9021 129.745 26.6974 130.155 26.3561C132.817 23.9671 135.547 21.5781 138.209 19.1209C138.277 19.0526 138.414 18.9844 138.482 18.9844C138.482 19.1891 138.482 19.3939 138.482 19.5987C138.482 23.7623 138.482 27.926 138.482 32.0214C138.482 32.4992 138.345 32.5674 137.936 32.5674C136.434 32.5674 134.933 32.5674 133.431 32.5674C133.158 32.5674 133.021 32.5674 132.817 32.2944C131.588 30.6563 130.359 29.0181 129.062 27.3799C129.062 27.4482 129.062 27.4482 129.062 27.3799Z" fill="#127B7A"/>
<path d="M145.03 15.0276C143.596 15.0276 142.095 15.0276 140.661 15.0276C140.32 15.0276 140.184 14.9593 140.184 14.5498C140.184 13.1846 140.184 11.8195 140.184 10.4544C140.184 10.1131 140.252 9.97656 140.661 9.97656C145.576 9.97656 150.49 9.97656 155.405 9.97656C155.746 9.97656 155.814 10.0448 155.814 10.3861C155.814 11.7512 155.814 13.1846 155.814 14.5498C155.814 14.891 155.678 14.9593 155.405 14.9593C153.971 14.9593 152.47 14.9593 151.036 14.9593C149.057 15.0276 147.009 15.0276 145.03 15.0276Z" fill="#0EA3D0"/>
<path d="M66.6049 20.3496C67.3557 21.9195 68.0382 23.4894 68.7891 25.0593C68.3113 25.1276 67.9017 25.1276 67.4239 25.1276C66.9461 25.1276 66.8779 25.2641 66.8779 25.6736C66.8779 27.7896 66.8779 29.9055 66.8779 32.0215C66.8779 32.431 66.8096 32.5675 66.3318 32.5675C64.6937 32.5675 63.0555 32.5675 61.3491 32.5675C61.2126 32.6358 61.0078 32.6358 61.0078 32.2263C61.0078 28.2674 61.0078 24.3085 61.0078 20.3496C62.919 20.3496 64.7619 20.3496 66.6049 20.3496Z" fill="#EFBB13"/>
<path d="M109.745 38.1666C111.246 36.2555 113.089 36.2555 114.864 38.0984C115.273 37.3476 115.819 36.938 116.639 36.8015C117.458 36.665 118.277 36.8015 119.028 37.2793C119.847 37.8254 120.324 38.6444 120.324 39.6683C120.324 41.5795 120.324 43.5589 120.324 45.4701C120.324 45.7431 120.256 45.8796 119.915 45.8796H118.345C118.004 45.8796 117.935 45.7431 117.935 45.4701C117.935 43.9002 117.935 42.3986 117.935 40.8287C117.935 40.4874 117.935 40.0778 117.799 39.7366C117.594 39.2588 117.253 38.8492 116.707 38.781C116.161 38.7127 115.751 38.9175 115.41 39.3953C115.069 39.8048 115.069 40.3509 115.069 40.8287C115.069 42.3303 115.069 43.8319 115.069 45.3336C115.069 45.8114 114.932 45.8796 114.523 45.8796H113.226C112.816 45.8796 112.68 45.8114 112.68 45.3336C112.68 43.8319 112.68 42.262 112.68 40.7604C112.68 40.5556 112.68 40.3509 112.68 40.1461C112.611 39.1905 112.27 38.8492 111.451 38.781C110.564 38.781 110.086 39.1222 109.949 40.0778C109.813 41.3065 109.949 42.5351 109.881 43.8319C109.881 44.4463 109.881 44.9923 109.881 45.6066C109.881 45.8114 109.813 45.9479 109.608 45.9479C108.994 45.9479 108.448 45.9479 107.833 45.9479C107.629 45.9479 107.492 45.8796 107.492 45.6749C107.492 42.8764 107.492 40.0778 107.492 37.2793C107.492 37.0745 107.56 36.938 107.765 36.938C108.311 36.938 108.857 36.938 109.403 36.938C109.745 36.938 109.745 37.0745 109.745 37.3476C109.745 37.5523 109.745 37.8254 109.745 38.1666Z" fill="#050505"/>
<path d="M136.497 44.8527C134.791 46.9004 131.241 46.2178 130.422 43.2828C130.013 41.8494 130.013 40.3478 130.627 38.9826C131.651 36.5936 134.518 36.1159 136.292 37.9588C136.292 37.9588 136.36 38.027 136.497 38.0953C136.497 36.7984 136.497 35.5015 136.497 34.2729C136.497 33.7951 136.565 33.6586 137.043 33.6586C137.043 33.6586 138.476 33.4538 138.749 33.8634C139.022 34.2047 138.818 34.9555 138.818 35.5015C138.818 38.8461 138.818 42.1224 138.818 45.467C138.818 45.8765 138.749 46.0131 138.34 45.9448H137.043C136.633 46.0131 136.497 45.9448 136.497 45.3988C136.497 45.2622 136.497 45.0575 136.497 44.8527ZM132.538 41.3034C132.538 41.7812 132.606 42.2589 132.743 42.6685C133.084 43.4876 133.767 43.9654 134.586 43.9654C135.405 43.9654 136.019 43.4193 136.36 42.6002C136.633 41.7812 136.565 41.0303 136.36 40.2112C136.087 39.1874 135.473 38.7779 134.518 38.7779C133.494 38.7779 132.879 39.3239 132.675 40.3478C132.538 40.689 132.538 41.0303 132.538 41.3034Z" fill="#040404"/>
<path d="M148.714 45.0591C147.486 46.0829 146.189 46.1512 144.892 45.8782C143.8 45.6734 143.186 44.9908 143.049 43.967C142.913 42.7384 143.322 41.7145 144.278 41.2367C145.233 40.7589 146.257 40.6907 147.281 40.5542C147.554 40.4859 147.895 40.4176 148.168 40.3494C148.51 40.2811 148.646 40.0081 148.646 39.6668C148.646 39.3255 148.51 39.1208 148.237 38.9843C147.281 38.3699 146.052 38.7795 145.575 39.8033C145.506 40.0081 145.37 40.0081 145.233 40.0081C144.687 40.0081 144.209 40.0081 143.663 40.0081C143.322 40.0081 143.322 39.8716 143.322 39.5986C143.459 38.4382 144.005 37.6191 145.097 37.2096C146.325 36.7318 147.622 36.7318 148.919 37.0731C150.216 37.4144 150.899 38.2334 151.035 39.5986C151.172 41.3732 151.035 43.2162 151.103 44.9908C151.103 45.9464 151.103 45.9464 150.148 45.9464H149.602C148.919 45.8782 148.646 45.8782 148.714 45.0591ZM148.646 41.6463C148.1 41.851 147.486 41.9875 146.871 42.0558C146.53 42.1241 146.257 42.1923 145.984 42.3288C145.506 42.6019 145.302 43.0114 145.438 43.4892C145.575 43.967 145.916 44.1035 146.394 44.1718C147.895 44.3765 148.783 43.3527 148.646 41.6463Z" fill="#050505"/>
<path d="M126.329 41.9179C125.442 41.9179 124.555 41.9179 123.599 41.9179C123.326 41.9179 123.258 41.9862 123.258 42.2592C123.394 43.6926 124.759 44.5799 125.988 43.9656C126.193 43.8974 126.398 43.7608 126.466 43.6243C126.739 43.0783 127.148 43.0783 127.694 43.0783H128.855C129.196 43.0783 129.196 43.2148 129.128 43.4878C128.513 44.9895 127.421 45.8085 125.783 45.9451C125.101 46.0133 124.418 45.9451 123.735 45.8085C122.029 45.399 121.142 44.1704 120.869 42.5322C120.664 41.0306 120.664 39.5289 121.688 38.2321C121.893 37.959 122.097 37.7543 122.302 37.6178C123.667 36.5939 126.056 36.4574 127.49 37.413C128.65 38.1638 129.06 39.3924 129.264 40.7576C129.401 41.9179 129.401 41.9179 128.24 41.9179C127.694 41.9179 127.012 41.9179 126.329 41.9179ZM125.169 40.348C125.647 40.348 126.124 40.348 126.602 40.348C126.944 40.348 126.944 40.2115 126.875 39.9385C126.739 39.1194 125.988 38.5733 125.101 38.5733C124.213 38.5733 123.462 39.1877 123.326 40.0067C123.258 40.2115 123.326 40.2798 123.531 40.2798C124.145 40.348 124.691 40.348 125.169 40.348Z" fill="#040404"/>
<path d="M66.6049 20.3501C64.7619 20.3501 62.919 20.3501 61.0078 20.3501C61.0078 17.0055 61.0078 13.6609 61.0078 10.3164C61.0078 9.90681 61.8269 10.0433 61.8269 10.0433C63.3968 13.3196 64.8984 16.6642 66.4683 19.9405C66.5366 20.077 66.5366 20.2136 66.6049 20.3501Z" fill="#45AA36"/>
<path d="M139.844 41.3741C139.844 40.0089 139.844 38.6438 139.844 37.2787C139.844 37.0057 139.912 36.8691 140.253 36.8691C140.799 36.8691 141.345 36.8691 141.96 36.8691C142.233 36.8691 142.301 36.9374 142.301 37.2104C142.301 40.0089 142.301 42.7392 142.301 45.5377C142.301 45.8108 142.233 45.879 141.96 45.879H140.253C139.912 45.879 139.844 45.8108 139.844 45.4695C139.844 44.1726 139.844 42.7392 139.844 41.3741Z" fill="#020202"/>
<path d="M141.004 35.8441C139.844 35.8441 139.844 35.8441 139.844 34.752C139.844 33.7282 139.844 33.7282 140.936 33.7282C140.936 33.7282 141.96 33.5917 142.164 33.7964C142.369 34.0695 142.233 34.5472 142.233 34.9568C142.233 35.8441 142.233 35.8441 141.345 35.8441C141.277 35.8441 141.141 35.8441 141.004 35.8441Z" fill="#020202"/>
<path d="M68.785 10.043C68.785 11.6129 68.785 13.1828 68.785 14.7527C68.7167 14.7527 68.7167 14.7527 68.6484 14.7527C68.6484 13.1828 68.6484 11.6129 68.6484 10.043C68.7167 10.043 68.7167 10.043 68.785 10.043Z" fill="#050505"/>
</svg>
