<svg width="216" height="54" viewBox="0 0 216 54" fill="none" xmlns="http://www.w3.org/2000/svg">
<path d="M48.5524 2.69238C50.7829 3.31048 53.1209 3.41798 55.4052 3.74046C64.5692 5.00354 73.7601 6.21287 82.9241 7.44907C88.6483 8.20154 94.3455 8.95401 100.204 9.73335C99.371 10.2708 98.5916 10.3246 97.7854 10.244C91.9538 9.65273 86.1221 9.08838 80.2905 8.49715C73.572 7.8253 66.8535 7.12658 60.135 6.45473C57.0177 6.13224 53.9003 5.8635 50.7829 5.48727C49.7348 5.3529 49.3317 5.4604 49.278 6.6966C48.9823 16.4518 48.5792 26.2071 48.2299 35.9623C48.203 36.3923 48.2299 36.8223 48.5524 37.521C49.5736 36.4192 50.5948 35.3442 51.5891 34.2424C51.9654 33.8124 52.3685 33.6243 52.9866 33.6243C66.4235 33.6511 79.8605 33.6243 93.2706 33.6243C93.4318 33.6243 93.6199 33.678 93.7812 33.8393C92.115 33.9199 90.4488 34.0274 88.7826 34.0811C79.2961 34.3767 69.8096 34.6724 60.3231 34.9948C58.0926 35.0755 55.8621 35.1561 53.6047 35.2367C53.2016 35.2636 52.8253 35.2636 52.5297 35.6129C51.0248 37.306 49.493 38.9722 47.7193 40.934C65.8054 40.934 83.5691 40.934 101.709 40.934C99.8009 42.8689 98.1885 44.5082 96.5492 46.1206C96.1998 46.47 95.6892 46.3088 95.2593 46.3088C89.9651 46.3356 84.6978 46.3625 79.4036 46.3356C78.4093 46.3356 78.0331 46.5775 78.1137 47.5987C78.1943 48.7543 78.1137 49.9367 78.0868 51.0923C74.8619 51.0923 71.6371 51.0923 68.4122 51.0923C67.821 50.3667 68.0091 49.4799 67.9822 48.6468C67.9285 47.0881 67.821 46.9806 66.1279 46.9537C58.657 46.9537 51.186 46.9537 43.7151 46.9537C42.882 46.9537 41.9951 47.1419 41.2695 46.5238C41.2695 45.9057 41.2695 45.2607 41.2695 44.6426C41.4308 44.4813 41.4039 44.2932 41.4039 44.1051C41.4039 43.917 41.4308 43.7289 41.2695 43.5676C41.2695 43.2183 41.2695 42.842 41.2695 42.4927C41.6726 40.1009 41.5383 37.6822 41.6458 35.2904C41.9145 30.0769 42.3445 24.8634 42.6401 19.6498C42.7745 17.5537 42.9895 15.4575 43.0163 13.3613C43.0432 11.4533 43.4194 11.077 45.2737 11.1308C46.2412 11.1577 46.5099 10.6471 46.6174 9.86772C46.8862 7.95967 46.5637 6.02475 46.9668 4.1167C47.0743 3.63297 47.0474 3.12237 47.4237 2.74613C47.8536 2.69239 48.203 2.69238 48.5524 2.69238Z" fill="#009DE1"/>
<path d="M41.2969 43.54C41.5925 43.6207 41.5387 43.8357 41.5119 44.0775C41.4312 44.2119 41.3775 44.2119 41.2969 44.0775C41.2969 43.8894 41.2969 43.7013 41.2969 43.54Z" fill="#9DDAF3"/>
<path d="M41.2969 44.0781C41.3775 44.0781 41.4581 44.0781 41.5119 44.0781C41.5656 44.32 41.5387 44.5081 41.2969 44.6156C41.2969 44.4275 41.2969 44.2394 41.2969 44.0781Z" fill="#7BCCEF"/>
<path d="M79.4052 12.8506C74.6754 12.8506 70.3755 15.8336 68.8706 20.1872C67.0163 25.5082 69.7037 30.2649 74.9979 31.098C80.4264 31.958 86.043 28.1687 87.2792 22.7939C88.5961 17.1773 85.1562 12.8506 79.4052 12.8506ZM75.8847 27.255C73.7348 26.7175 72.4717 25.1051 72.4717 22.9014C72.4717 19.0853 76.1803 15.9948 79.9427 16.7204C81.8238 17.0698 83.2481 18.6285 83.49 20.6172C83.92 24.5139 79.7545 28.1956 75.8847 27.255Z" fill="#009DE1"/>
<path d="M113.535 21.2362C114.663 21.2362 115.765 21.2631 116.894 21.2362C117.566 21.2093 117.808 21.3168 117.7 22.123C116.975 28.3847 110.847 32.577 104.801 30.8571C101.898 30.024 100.205 28.0353 99.7215 25.0523C98.539 17.662 106.037 11.051 113.212 13.2009C114.851 13.6846 116.168 14.6521 117.082 16.1301C117.539 16.8826 117.62 17.4201 116.625 17.7157C116.276 17.8232 115.953 17.9576 115.631 18.1457C114.502 18.8175 113.669 19.0594 112.836 17.5276C112.003 16.0495 109.853 15.8077 107.972 16.5601C104.854 17.8232 102.946 21.9887 104.048 25.1867C104.666 26.9603 106.144 27.9815 108.026 28.0084C109.987 28.0084 111.976 26.7722 112.567 25.2404C112.782 24.6761 112.728 24.4073 112.057 24.4342C111.385 24.4611 110.713 24.3804 110.041 24.4611C108.993 24.5954 108.885 24.1386 109.02 23.2517C109.315 21.3168 109.262 21.2899 111.25 21.2899C112.003 21.2362 112.755 21.2362 113.535 21.2362Z" fill="#009DE1"/>
<path d="M133.928 29.4056C132.853 24.9714 131.858 20.5372 130.837 16.0761C130.165 13.2275 130.192 13.2813 127.343 13.2006C126.215 13.1738 125.624 13.5231 125.086 14.5443C122.452 19.516 119.711 24.4608 117.024 29.4056C116.809 29.7819 116.486 30.1312 116.513 30.6149C116.567 30.6418 116.594 30.6956 116.648 30.6956C120.222 31.0718 120.249 31.0718 121.888 27.9813C122.237 27.3095 122.641 27.1213 123.339 27.1213C124.952 27.1751 126.564 27.1751 128.177 27.1213C129.063 27.0945 129.386 27.3632 129.547 28.25C130.004 30.7493 130.058 30.7493 132.611 30.7493C132.691 30.7493 132.799 30.7493 132.88 30.7493C134.062 30.9374 134.169 30.4 133.928 29.4056ZM127.935 23.9502C126.699 23.9502 125.435 23.9502 123.93 23.9502C125.086 21.7466 126.134 19.8116 127.317 17.5273C127.773 19.7041 128.15 21.5584 128.553 23.4127C128.687 24.004 128.284 23.9502 127.935 23.9502Z" fill="#009DE1"/>
<path d="M59.4353 25.2129C60.0266 24.1111 60.4565 23.3049 60.8865 22.4987C62.2571 19.8919 63.6814 17.312 64.9445 14.6515C65.482 13.5228 66.1538 13.1465 67.39 13.2003C69.9968 13.3078 69.9968 13.2271 68.7068 15.5383C66.0732 20.2681 63.3858 24.9442 60.8328 29.7009C59.9728 31.2864 58.7097 30.5877 57.581 30.6952C56.4792 30.7758 56.7211 29.7546 56.5598 29.1365C55.3505 24.2455 54.2218 19.3275 52.9856 14.4365C52.7437 13.469 52.905 13.2003 53.9262 13.2003C56.9629 13.2003 56.9629 13.1734 57.581 16.1295C58.1991 19.0588 58.7635 21.9612 59.4353 25.2129Z" fill="#009DE1"/>
<path d="M92.9482 30.721C91.7926 30.721 90.6102 30.6673 89.4546 30.7479C88.4872 30.8016 88.2184 30.4792 88.3797 29.5386C88.9709 26.0181 89.5084 22.4707 90.0727 18.9502C90.3146 17.4184 90.5833 15.8597 90.7714 14.3011C90.8789 13.4948 91.2014 13.1992 92.0614 13.1992C94.9369 13.1992 94.91 13.1724 94.4532 16.021C93.8888 19.5146 93.3782 23.0082 92.7601 26.4749C92.6257 27.2274 92.8139 27.4155 93.5126 27.3887C94.6682 27.3349 95.8506 27.3618 97.0062 27.3887C97.2749 27.3887 97.7049 27.3618 97.7587 27.4693C98.1349 28.3292 97.5974 29.1623 97.5705 30.0492C97.5437 30.6135 97.1943 30.7748 96.6568 30.7479C95.4475 30.721 94.1844 30.721 92.9482 30.721Z" fill="#009DE1"/>
<path d="M149.894 35.4778C146.965 35.4778 144.546 37.9502 144.52 40.8794C144.52 43.8893 146.965 46.308 150.002 46.2811C152.985 46.2273 155.296 43.8356 155.269 40.8257C155.242 37.8427 152.85 35.4509 149.894 35.4778ZM149.867 45.4211C147.476 45.3942 145.433 43.3518 145.406 40.9332C145.379 38.4876 147.449 36.3646 149.894 36.3377C152.286 36.3109 154.436 38.4608 154.409 40.9063C154.409 43.3518 152.313 45.4211 149.867 45.4211Z" fill="#039EE1"/>
<path d="M111.817 35.4778C108.86 35.4778 106.361 38.0577 106.415 41.0138C106.496 43.9699 108.914 46.3348 111.897 46.308C114.88 46.2811 117.191 43.9162 117.164 40.8794C117.164 37.8427 114.773 35.4509 111.817 35.4778ZM111.817 45.4211C109.344 45.4211 107.356 43.3787 107.356 40.8525C107.356 38.407 109.317 36.3915 111.736 36.3377C114.155 36.284 116.251 38.3801 116.278 40.8525C116.305 43.3518 114.289 45.3942 111.817 45.4211Z" fill="#039EE1"/>
<path d="M139.007 35.6385C138.04 35.5579 137.045 35.6385 136.051 35.5847C135.298 35.531 135.03 35.7997 135.057 36.5791C135.11 38.0571 135.057 39.5352 135.057 41.0133V42.7601C135.057 46.3881 135.056 46.3881 138.765 46.2268C141.802 46.0924 143.871 43.9694 143.925 40.9864C143.952 38.0034 141.99 35.8804 139.007 35.6385ZM138.926 45.2594C135.89 45.5818 135.89 45.5818 135.89 42.6257C135.89 41.067 135.97 39.4815 135.863 37.9228C135.782 36.7134 136.185 36.2835 137.341 36.4985C137.556 36.5253 137.798 36.4985 138.013 36.4985C141.264 36.4985 143.011 38.084 142.957 40.9595C142.957 43.4319 141.479 44.9906 138.926 45.2594Z" fill="#039EE1"/>
<path d="M161.258 35.4778C158.355 35.4778 155.883 37.977 155.883 40.8794C155.883 43.8624 158.355 46.308 161.365 46.2811C164.348 46.2542 166.659 43.8624 166.632 40.8257C166.606 37.8158 164.214 35.4509 161.258 35.4778ZM161.231 45.4211C158.812 45.4211 156.823 43.4056 156.823 40.96C156.797 38.4608 158.785 36.3646 161.258 36.3377C163.676 36.3109 165.746 38.407 165.746 40.8794C165.746 43.3787 163.73 45.4211 161.231 45.4211Z" fill="#029EE1"/>
<path d="M170.692 42.0611C172.277 43.5123 173.648 44.7485 175.072 46.0653C174.32 46.3071 173.836 46.1459 173.352 45.7159C172.143 44.5872 170.907 43.4854 169.67 42.3836C169.402 42.1417 169.079 41.9267 169.187 41.4967C169.321 40.9861 169.778 41.2011 170.1 41.1742C170.584 41.1474 171.095 41.1742 171.578 41.1474C172.949 41.0399 173.809 40.1261 173.782 38.7824C173.755 37.4925 172.922 36.6325 171.578 36.525C168.461 36.2563 168.461 36.2563 168.461 39.3737C168.461 41.3355 168.461 43.2973 168.461 45.2859C168.461 45.6353 168.649 46.1996 167.977 46.1728C167.44 46.1459 167.601 45.6353 167.601 45.3397C167.601 42.3836 167.601 39.4274 167.574 36.4982C167.574 35.8801 167.762 35.6113 168.407 35.6113C169.429 35.6382 170.477 35.5845 171.498 35.6651C173.433 35.7994 174.588 37.0356 174.615 38.8362C174.642 40.6636 173.513 41.8461 171.578 42.0611C171.417 42.0342 171.229 42.0342 170.692 42.0611Z" fill="#029EE1"/>
<path d="M118.183 39.6449C118.183 38.6237 118.156 37.6025 118.183 36.5544C118.183 36.205 117.995 35.6407 118.613 35.6138C119.231 35.5869 119.097 36.1244 119.097 36.5006C119.097 38.5162 119.097 40.5317 119.097 42.5204C119.097 44.4016 120.145 45.3959 122.026 45.3422C123.88 45.3153 124.848 44.3478 124.875 42.5473C124.875 40.5317 124.875 38.5162 124.875 36.5275C124.875 36.1781 124.687 35.6138 125.305 35.5869C125.923 35.5869 125.735 36.1513 125.735 36.5006C125.762 38.6505 125.788 40.8005 125.735 42.9235C125.681 44.9659 124.257 46.1752 121.972 46.1752C119.742 46.1752 118.237 44.9122 118.156 42.9235C118.156 41.8754 118.183 40.7736 118.183 39.6449Z" fill="#07A0E2"/>
<path d="M129.953 41.2573C129.953 39.9942 129.926 38.758 129.98 37.495C130.007 36.7425 129.792 36.42 129.013 36.5006C128.394 36.5544 127.776 36.5006 127.131 36.5006C126.809 36.5006 126.486 36.4738 126.513 36.0169C126.54 35.6675 126.782 35.5869 127.051 35.5869C129.281 35.5869 131.512 35.5869 133.742 35.5869C134.038 35.5869 134.253 35.7213 134.226 36.0706C134.226 36.4469 133.984 36.5006 133.689 36.5006C133.608 36.5006 133.501 36.5006 133.42 36.5006C132.587 36.5812 131.512 36.1244 130.974 36.6887C130.41 37.3068 130.813 38.3818 130.786 39.2686C130.759 41.2304 130.786 43.1922 130.759 45.154C130.759 45.5034 131.001 46.0946 130.383 46.1215C129.658 46.1484 129.926 45.4765 129.926 45.1003C129.926 43.8372 129.953 42.5473 129.953 41.2573Z" fill="#08A0E2"/>
</svg>
