<svg width="216" height="55" viewBox="0 0 216 55" fill="none" xmlns="http://www.w3.org/2000/svg">
<path fill-rule="evenodd" clip-rule="evenodd" d="M57.6433 26.2327L58.3036 24.1085L56.1176 24.1784C55.934 24.1784 54.5905 24.1381 53.2899 23.1909C53.3876 23.1989 53.4827 23.2137 53.5845 23.2137C54.9241 23.2137 56.222 22.4022 56.7404 21.2414L57.6808 19.1454C56.502 19.1616 55.4237 19.0124 55.4237 19.0124C55.4143 19.0124 54.5651 18.9009 53.5832 17.8919C52.8786 17.1704 52.0066 16.7875 51.0623 16.7875C50.6884 16.789 50.317 16.8483 49.9612 16.9635C50.0107 16.7942 50.0576 16.6209 50.0858 16.4436C50.3845 14.482 49.1293 12.988 49.1293 12.988L47.4858 10.9431L46.4664 13.3453C46.4624 13.3534 46.2052 13.9177 45.7457 14.1918C45.6064 13.4851 45.2649 12.691 44.5362 11.9319C43.1605 10.5024 41.4875 10.2874 40.6114 10.2874C40.2055 10.2874 39.9149 10.3331 39.8452 10.3439L37.8614 10.7362C37.9753 10.2915 38.2204 9.51354 38.6651 8.81624L39.7608 7.10322L37.0055 7.41895L36.1281 5.54605L34.4282 6.42607L32.857 4.86621L31.2898 6.42473L29.5873 5.54605L28.7112 7.41761L25.9572 7.10188L27.0543 8.81759C27.5003 9.51489 27.7428 10.2888 27.8566 10.7335L25.9639 10.3573L25.8983 10.3479C25.6369 10.3066 25.3726 10.2864 25.108 10.2874C24.2319 10.2874 22.5589 10.5024 21.1872 11.9319C20.4572 12.6897 20.1143 13.4851 19.975 14.1918C19.5182 13.919 19.2623 13.3655 19.2623 13.3655L18.2416 10.9471L16.5713 13.0081C16.3677 13.2728 15.3617 14.6781 15.6336 16.4476C15.6631 16.6236 15.7086 16.7956 15.7582 16.9649C15.4034 16.8493 15.0328 16.7899 14.6598 16.7889C13.7141 16.7889 12.8421 17.1718 12.1362 17.8933C11.1583 18.8982 10.3131 19.0124 10.3198 19.0124C10.3198 19.0124 9.42634 19.1737 8.04263 19.1468L8.97894 21.2427C9.49867 22.4035 10.798 23.215 12.1348 23.215C12.2366 23.215 12.3317 23.2003 12.4309 23.1922C11.1315 24.1408 9.78935 24.1797 9.62727 24.1797L7.40234 24.1085L8.07612 26.2313C8.41635 27.3277 9.54957 29.1401 11.7196 29.3349C11.4838 30.3291 10.9601 31.4443 9.81078 31.9253L8.15247 32.6105L9.05664 34.1932C9.56699 35.0463 10.7658 36.0446 12.471 36.0446C12.8394 36.0446 13.1957 36.0056 13.54 35.9331C13.627 36.3227 13.7369 36.7123 13.8668 37.102C14.3731 38.6202 13.9365 39.6789 13.9311 39.691L13.114 41.4134L14.9398 41.8971C14.9625 41.9052 15.5157 42.0583 16.2056 42.0583C16.519 42.0583 16.8191 42.0247 17.1004 41.9576C17.312 41.9078 17.5156 41.8407 17.7125 41.7614C17.9496 42.1873 18.2363 42.5769 18.5712 42.9249C19.7419 44.1328 21.4029 44.7441 23.5032 44.7441H23.5099L25.0102 44.7239L21.9106 46.0191L24.2641 47.1625C25.12 47.5816 26.1327 48.0761 27.1668 48.4549L26.8721 49.2624L27.6825 49.6346C27.7548 49.6682 29.3167 50.3682 31.9086 50.5173C31.9086 50.5173 32.5342 50.5469 32.8784 50.5469C33.224 50.5469 33.8429 50.516 33.8429 50.516C36.4174 50.3628 37.9659 49.6682 38.0382 49.6346L38.8513 49.2624L38.5553 48.4536C39.6162 48.064 40.6677 47.5481 41.4888 47.1463L43.7981 46.0177L40.7079 44.7239L42.2148 44.7441C44.3178 44.7441 45.9788 44.1314 47.1482 42.9236C47.4818 42.5769 47.7671 42.1886 48.0055 41.7614C48.4836 41.9597 48.9964 42.0602 49.5138 42.057C50.1929 42.057 50.7515 41.9065 50.7662 41.9011L52.6013 41.4134L51.8017 39.7219C51.7829 39.6789 51.3462 38.6202 51.8526 37.0993C51.9825 36.7123 52.091 36.3214 52.1794 35.9331C52.5237 36.0056 52.884 36.0432 53.255 36.0446C55.4277 36.0446 56.4698 34.5089 56.6708 34.1757L57.5669 32.6091L55.9086 31.9253C54.7566 31.4456 54.2342 30.3305 54.0011 29.3376C56.143 29.1495 57.291 27.3357 57.6446 26.234L57.6433 26.2327Z" fill="#FFFFFE"/>
<path fill-rule="evenodd" clip-rule="evenodd" d="M32.8473 11.5109C31.0871 11.5123 29.7663 12.09 29.4788 12.7713L32.8473 14.1015L36.2171 12.7713C35.9323 12.09 34.6115 11.5123 32.8473 11.5109ZM32.8836 46.7672H32.8164C31.7495 46.7739 30.2782 46.5549 29.5715 46.3466L28.7196 48.6564C29.2813 48.8566 31.1839 49.2409 32.8513 49.2409C34.5161 49.2409 36.42 48.8566 36.9803 48.6564L36.1298 46.348C35.419 46.5549 33.9504 46.7739 32.8836 46.7672ZM39.329 44.4695C38.6948 44.8296 37.2799 45.3698 36.4563 45.6197L37.1469 47.5277C38.4207 47.1783 39.4728 46.7712 40.3408 46.3345L38.9058 45.8575L39.329 44.4695ZM26.3696 44.4695L26.7942 45.8575L25.3578 46.3345C26.2245 46.7712 27.2806 47.1783 28.5503 47.5264L29.2423 45.6184C28.42 45.3684 27.0024 44.8296 26.3696 44.4695ZM32.8473 9.3033C34.1761 9.3033 35.4768 9.62175 36.4791 10.1794C36.5705 9.87301 36.6981 9.49947 36.8715 9.10847L36.4926 9.15415L36.0962 9.19446L35.9282 8.83302L35.4203 7.76212L34.4986 8.24315L34.1385 8.42589L33.851 8.14372L32.8473 7.14941L31.8463 8.14372L31.5601 8.42589L31.2013 8.24315L30.2742 7.76212L29.773 8.83302L29.6024 9.19581L29.2047 9.15415L28.8285 9.10847C29.0018 9.49947 29.1281 9.87301 29.2208 10.1794C30.2258 9.62175 31.5265 9.3033 32.8486 9.3033H32.8473ZM53.1161 21.6878C53.2894 21.7469 53.4641 21.7738 53.6374 21.7738C54.3899 21.7738 55.1154 21.286 55.364 20.7298C55.364 20.7298 53.9868 20.6465 52.5061 19.1402C52.0358 18.6538 51.536 18.5074 51.1087 18.5074C50.4436 18.5074 49.9438 18.8581 49.9438 18.8581C51.7335 19.8121 52.0976 21.3438 53.1161 21.6878ZM12.0612 21.7724C12.2358 21.7724 12.4105 21.7469 12.5785 21.6865C13.5996 21.3425 13.9678 19.8121 15.7535 18.8594C15.7535 18.8594 15.2537 18.5074 14.5926 18.5074C14.1626 18.5074 13.6641 18.6525 13.1912 19.1416C11.7118 20.6465 10.3359 20.7311 10.3359 20.7311C10.5832 21.286 11.3101 21.7738 12.0612 21.7738V21.7724Z" fill="#FFFFFE"/>
<path fill-rule="evenodd" clip-rule="evenodd" d="M52.7059 32.4067C51.3135 31.7208 50.4348 29.9053 50.2212 29.2517C49.9914 32.8532 48.2272 35.3519 46.1657 37.7564C45.095 39.0045 44.7219 40.2175 44.7219 40.2175C44.7219 40.2175 44.9288 38.8431 45.8534 37.7242C47.7771 35.4218 49.6048 32.5546 49.7413 29.2383C49.8346 26.9252 49.2384 25.0491 48.3056 23.5026C48.8275 25.1123 48.7531 27.0852 46.9836 28.9263C46.9836 28.9263 50.5078 24.7196 45.5817 20.4054C43.6107 18.7647 41.4532 17.7507 40.3433 17.0326C44.3542 18.337 46.3144 16.9008 46.3144 16.9008C45.0329 18.0076 43.3741 17.9887 42.3454 17.8287C42.6252 17.9645 42.9159 18.1071 43.2268 18.2725C46.6104 20.1042 49.6494 23.1179 50.1685 27.2896V27.2573C50.9539 31.355 52.7059 32.4067 52.7059 32.4067ZM53.736 27.6325C53.7671 27.6352 53.7941 27.6352 53.8252 27.6352C55.711 27.6352 56.3491 25.622 56.3491 25.622H56.3126C55.9665 25.622 53.1628 25.5413 51.181 23.0305C49.8778 21.3804 48.8085 19.9293 46.697 19.3591L46.4888 19.3215L46.4442 19.1103C46.386 18.7889 46.6064 18.4877 47.1093 18.1636C50.0225 16.262 48.042 13.8359 48.042 13.8359C48.042 13.8359 47.212 15.7751 45.3505 15.7751L45.2113 15.7724C45.0004 15.7617 44.7963 15.755 44.5908 15.7106L44.2474 15.6433C44.2474 15.6433 44.7787 14.2044 43.4972 12.8851C42.5333 11.8872 41.3586 11.7178 40.6813 11.7178C40.3393 11.7178 40.123 11.7622 40.123 11.7622C40.7665 12.6 41.2315 13.9919 40.488 14.8499C39.8459 15.5869 38.2777 15.6232 38.2777 16.7232C38.2777 17.1886 38.7144 17.7319 39.4984 18.22C41.856 19.6994 44.1961 21.6628 45.1694 24.2947C46.386 27.5761 45.0153 29.7547 43.0605 31.004C43.0605 31.004 43.6743 31.5662 44.5624 31.6388C44.7436 31.6563 44.9207 31.6643 45.0856 31.6643C46.9633 31.6643 47.9339 30.7862 47.9339 30.7862C47.9339 30.7862 47.773 31.9992 46.7984 33.1248C45.8953 34.1631 44.7125 34.7763 42.9078 34.8018C42.9078 34.8018 42.851 35.6356 43.6499 36.3592C44.1623 36.8151 45.3424 36.9643 45.3424 36.9643C45.3424 36.9643 43.1308 37.4095 42.8861 40.6653C42.7537 42.4297 42.3021 43.0416 42.3021 43.0416H42.3413C47.4729 43.0416 47.3418 38.6548 47.3418 38.6548C47.3418 38.6548 47.6987 39.9539 49.1303 40.2928C49.3033 40.3385 49.4885 40.356 49.6642 40.356C50.1239 40.356 50.5254 40.2484 50.5254 40.2484C50.5254 40.2484 49.7751 38.6723 50.5186 36.4681C51.1364 34.6378 51.0364 33.2822 51.0364 33.2822C51.0364 33.2822 51.7271 34.3244 53.4426 34.3338H53.4602C53.8654 34.3401 54.2657 34.2445 54.6239 34.056C54.9821 33.8674 55.2868 33.592 55.5096 33.2553C52.0881 31.8392 52.426 27.2708 52.426 27.2708C52.426 27.2708 52.8695 27.6016 53.736 27.6339V27.6325ZM19.5494 37.7564C17.4878 35.3519 15.7237 32.8532 15.4912 29.2517C15.2789 29.9067 14.4016 31.7222 13.0105 32.4067C13.0105 32.4067 14.7598 31.355 15.5452 27.2573V27.2896C16.0657 23.1179 19.1046 20.1042 22.4883 18.2738C22.7992 18.1057 23.0912 17.9645 23.3683 17.83C22.3409 17.9887 20.6809 18.0076 19.4007 16.9021C19.4007 16.9021 21.3608 18.337 25.3704 17.0326C24.2619 17.7507 22.1043 18.7647 20.1347 20.4054C15.2073 24.7196 18.7315 28.9263 18.7315 28.9263C16.9606 27.0838 16.8876 25.1137 17.4094 23.5026C16.4766 25.0491 15.8791 26.9252 15.9765 29.2396C16.1103 32.5546 17.9366 35.4218 19.8562 37.7255C20.7863 38.8417 20.9958 40.2162 20.9958 40.2162C20.9958 40.2162 20.6173 39.0045 19.5494 37.7564ZM20.374 36.963C20.374 36.963 21.5541 36.8151 22.0665 36.3578C22.8641 35.6356 22.8087 34.8018 22.8087 34.8018C21.0026 34.7763 19.8211 34.1631 18.914 33.1248C17.9434 31.9992 17.7812 30.7862 17.7812 30.7862C17.7812 30.7862 18.7518 31.6643 20.6268 31.6643C20.7958 31.6643 20.9715 31.6563 21.1513 31.6388C21.7061 31.5829 22.231 31.3617 22.6572 31.004C20.6998 29.7547 19.329 27.5761 20.5443 24.2933C21.5176 21.6642 23.8563 19.6994 26.2166 18.2187C26.9993 17.7319 27.4346 17.1886 27.4346 16.7232C27.4346 15.6232 25.8692 15.5869 25.2271 14.8499C24.4836 13.9919 24.95 12.6 25.5921 11.7622C25.5921 11.7622 25.3771 11.7178 25.0338 11.7178C24.3579 11.7178 23.1831 11.8872 22.2179 12.8851C20.9337 14.2057 21.4676 15.6447 21.4676 15.6447L21.1243 15.7119C20.9201 15.7536 20.7133 15.7617 20.5024 15.7738L20.3672 15.7751C18.5017 15.7751 17.673 13.8372 17.673 13.8372C17.673 13.8372 15.6953 16.262 18.6085 18.1636C19.1087 18.4877 19.329 18.7903 19.2709 19.1103L19.2263 19.3201L19.014 19.3578C16.9065 19.9293 15.8372 21.3804 14.5314 23.0305C12.5496 25.5413 9.74855 25.622 9.40113 25.622H9.36328C9.36328 25.622 10.0027 27.6352 11.8899 27.6352C11.9196 27.6352 11.9466 27.6352 11.9791 27.6325C12.8456 27.6016 13.2904 27.2708 13.2904 27.2708C13.2904 27.2708 13.6256 31.8392 10.2055 33.2553C10.2055 33.2553 10.8287 34.3352 12.2562 34.3352H12.2724C13.9893 34.3244 14.6787 33.2822 14.6787 33.2822C14.6787 33.2822 14.5787 34.6391 15.1938 36.4681C15.9373 38.6736 15.1911 40.2471 15.1911 40.2471C15.1911 40.2471 15.5898 40.3547 16.0508 40.3547C16.2293 40.3547 16.4118 40.3385 16.5834 40.2928C18.0137 39.9539 18.3719 38.6548 18.3719 38.6548C18.3719 38.6548 18.2408 43.0416 23.3737 43.0416H23.4116C23.4116 43.0416 22.9614 42.4297 22.8303 40.6653C22.587 37.4108 20.3726 36.963 20.3726 36.963H20.374ZM31.6983 20.7981H34.1181V21.6252C33.8342 21.2782 33.28 21.3495 33.28 21.3495V22.5423C33.28 22.5423 33.2989 23.1287 33.5071 23.3829H32.3094C32.5189 23.1287 32.5365 22.5423 32.5365 22.5423V21.3495C32.5365 21.3495 31.9849 21.2782 31.6983 21.6252V20.7981ZM29.0623 20.9218C29.1461 21.0119 29.2285 21.1101 29.3083 21.2083C29.3272 21.2311 29.3448 21.2513 29.3637 21.2782C29.4381 21.375 29.5124 21.4799 29.5841 21.5848L29.6327 21.6561C29.7179 21.7852 29.799 21.9183 29.8801 22.0569C30.6209 23.3304 31.8051 24.0916 32.8555 24.0929C33.9086 24.0916 35.0914 23.3304 35.8336 22.0569C35.9161 21.9156 35.9985 21.7785 36.085 21.6494C36.1837 21.499 36.2893 21.3531 36.4014 21.2123C36.4838 21.1101 36.569 21.0106 36.6555 20.9191C36.6704 20.9057 36.6826 20.8909 36.6974 20.8788C37.0759 20.4942 37.5234 20.201 38.1128 20.0383L37.8505 19.8863H37.837L36.7934 19.2838L35.7241 18.6719L32.8636 20.2238L32.8555 20.2171L32.8514 20.2238L29.991 18.6719L28.9203 19.2838L27.8767 19.8863H27.8645L27.6009 20.0383C28.189 20.1996 28.6378 20.4901 29.0163 20.8761C29.0325 20.8895 29.0433 20.9084 29.0623 20.9218Z" fill="#FFFFFE"/>
<path fill-rule="evenodd" clip-rule="evenodd" d="M31.9684 15.6122V16.4013L31.822 16.3306C31.8154 16.3251 31.599 16.2762 31.2256 15.9687C30.6069 15.4734 30.595 15.0163 30.595 15.0163L31.9671 15.6122H31.9684ZM32.6149 19.3088V14.4081L29.5963 13.3496L30.3932 18.0979L32.6162 19.3088H32.6149ZM33.7495 15.6122L35.1216 15.0163C35.1216 15.0163 35.111 15.4734 34.4896 15.9687C34.1163 16.2748 33.9012 16.3251 33.8946 16.3306L33.7495 16.4V15.6122ZM35.3234 18.0993L36.1164 13.351L33.0991 14.4081V19.3088L35.3234 18.0979V18.0993ZM28.3456 30.6695C28.6398 30.7783 28.996 30.8015 29.1794 30.8015C29.186 30.7783 29.1965 30.7498 29.2058 30.7144C29.2203 30.66 29.2361 30.6028 29.248 30.5429C29.2994 30.2708 29.3166 29.9647 29.3219 29.7661C29.1531 29.6626 29.0156 29.5128 28.9247 29.3334C28.8126 29.0899 28.653 28.9756 28.4194 28.9756C28.116 28.9756 27.7901 29.1661 27.649 29.2531C27.5381 29.9307 28.0223 30.5457 28.3456 30.6681V30.6695ZM35.024 28.0695C34.4646 28.6994 33.3656 29.7974 33.3128 29.8518L33.2468 29.9198L29.777 29.864C29.7741 30.1601 29.7369 30.4547 29.6662 30.7416L29.6385 30.8545L33.764 31.6219C34.1928 31.3117 35.3736 30.4205 35.8327 30.0708C35.4989 29.5674 35.4673 28.9701 35.5425 28.5511C35.3444 28.422 35.169 28.2592 35.024 28.0695Z" fill="#FFFFFE"/>
<path fill-rule="evenodd" clip-rule="evenodd" d="M35.6506 23.7924C34.8283 24.5963 34.0399 24.8942 33.3357 24.9636C33.2068 24.9774 33.0773 24.9845 32.9476 24.985H32.93C32.6709 24.9849 32.4126 24.9581 32.1593 24.9048C32.1131 25.0851 32.0548 25.4631 32.2217 25.821C32.3709 26.1456 32.6735 26.3873 33.1159 26.5489L33.2651 26.6063L33.2665 26.7639C33.2665 26.8106 33.3018 27.8337 34.4334 28.1181C34.618 27.9311 34.7862 27.7615 34.9083 27.6186C34.6777 27.0831 34.7998 26.5355 35.1349 26.2671C35.1214 26.3245 34.9721 27.6667 36.0644 28.1662L36.2449 28.2503L36.1906 28.4387C36.173 28.4961 35.8093 29.7955 37.1323 30.279L37.3657 30.3672L37.2612 30.5902C37.2381 30.6396 36.7198 31.8189 37.941 32.4893H40.5883V30.4152C39.6466 30.3017 39.2491 29.5551 39.1459 29.0263C38.7077 28.9528 38.3698 28.7672 38.1378 28.464C37.5814 27.7428 38.0591 27.0818 38.0658 27.0457C38.0645 27.051 38.0658 27.7535 38.5055 28.1889C38.7239 28.3972 38.9817 28.5602 39.3739 28.5962L39.5652 28.6136L39.5815 28.8073C39.5856 28.8487 39.6901 29.8009 40.5883 29.9505L40.587 25.7168C40.587 25.0598 40.781 24.4 41.0144 23.791H35.6506V23.7924ZM28.5228 25.7329L28.4522 28.428L28.7643 28.476L29.5242 25.8891L29.1374 25.0932L28.5241 25.7329H28.5228ZM30.17 35.7146C30.1492 35.714 30.1287 35.7091 30.1098 35.7004C30.0909 35.6917 30.074 35.6792 30.0601 35.6639C30.0463 35.6485 30.0358 35.6305 30.0292 35.6109C30.0227 35.5914 30.0203 35.5708 30.0221 35.5503C30.0233 35.5301 30.0286 35.5103 30.0377 35.4921C30.0468 35.4739 30.0595 35.4576 30.075 35.4443C30.0906 35.431 30.1087 35.4209 30.1283 35.4145C30.1478 35.4082 30.1685 35.4058 30.189 35.4074C30.2786 35.4114 30.341 35.4876 30.3383 35.5704C30.3352 35.6114 30.3158 35.6495 30.2843 35.6765C30.2528 35.7035 30.2117 35.7172 30.17 35.7146ZM36.903 38.1012C36.926 38.1012 36.9532 38.1039 36.9776 38.1105C37.4525 38.2441 37.5706 39.9242 38.3996 40.0738C38.4811 40.0911 38.557 40.0951 38.6222 40.0951C38.8623 40.0951 39.0048 39.995 39.1595 39.8147C39.1595 39.8147 38.7416 39.1696 38.4295 38.7329C38.0156 38.1613 37.6941 37.4708 36.922 37.4708C36.903 37.4708 36.8813 37.4708 36.8609 37.4735C36.7139 37.4793 36.5716 37.5266 36.4511 37.6097C36.1934 37.4419 35.8917 37.3514 35.5827 37.3493C35.101 37.3493 34.7238 37.5683 34.5352 37.5683H34.5284L32.8051 37.4C32.5351 37.3733 32.3221 37.1062 32.2447 37.002L32.2149 36.9566C32.2149 36.9099 32.2149 36.8632 32.2122 36.8218C32.1538 35.4315 31.0629 34.8372 30.6735 34.8265C30.6735 34.8265 30.7196 34.562 30.6151 34.4619L30.2352 34.916L28.9868 34.2989L29.877 35.3246L29.1239 36.1593C29.0289 36.2542 29.0411 36.3824 29.0805 36.4371L29.4061 36.7203L29.8186 36.4732C29.839 36.4585 29.877 36.4531 29.9231 36.4531C30.0371 36.4531 30.208 36.4825 30.3614 36.4825C30.531 36.4825 30.6762 36.4478 30.6938 36.2915C30.6422 36.8071 30.1565 37.7032 30.4753 38.407L30.7115 38.9386L29.1877 38.7222L28.4739 39.9095C28.2541 40.3048 28.2188 40.7322 28.4305 40.9646L28.6978 41.2944C28.6978 41.2944 29.0723 40.9031 29.1551 40.6454L29.0343 40.5145C28.9326 40.4036 28.938 40.3048 29.0004 40.1859L29.4482 39.4541L31.2461 39.8721L31.3411 39.7118C31.4632 39.5115 31.6396 39.4527 31.8322 39.4527C31.9123 39.4527 31.9937 39.4621 32.0778 39.4754C32.4116 39.5409 32.9612 39.6277 33.5107 39.6277C34.1146 39.6277 34.7129 39.5209 35.0318 39.1696C35.6831 40.1218 37.0047 40.2728 36.9003 40.7575L36.5529 42.3896C36.7836 42.3789 37.0047 42.3642 37.2151 42.3361L37.5462 40.6387C37.573 40.4945 37.5965 40.3498 37.6167 40.2046C37.4892 40.0764 37.1811 39.808 37.0061 39.4808C36.7741 39.0387 36.9003 38.8077 36.6832 38.2334C36.6832 38.2334 36.751 38.0999 36.903 38.0999V38.1012Z" fill="#FFFFFE"/>
<path fill-rule="evenodd" clip-rule="evenodd" d="M27.8295 39.7146C27.8295 39.7146 28.4119 39.4824 28.4648 39.3146L28.3854 39.1262C28.3311 39.0023 28.3377 38.8681 28.4449 38.7959L29.0723 38.3713L30.1218 38.5688C30.1218 38.5688 29.9312 38.3365 29.9497 38.0268L28.9492 37.8203L28.0042 38.3816C27.8394 38.5008 27.7202 38.6705 27.6657 38.8634C27.6113 39.0564 27.6247 39.2616 27.7038 39.4462L27.8295 39.7159V39.7146ZM35.2502 42.3884C35.4368 42.3806 35.6459 42.3781 35.8722 42.3781C35.8722 42.3781 36.4122 40.836 36.4426 40.787C36.0416 40.6046 35.6503 40.4026 35.2701 40.1818C35.4302 40.4166 35.8193 40.6837 35.7425 40.8902L35.2502 42.3884Z" fill="#FFFFFE"/>
<path fill-rule="evenodd" clip-rule="evenodd" d="M40.3512 33.0063H25.4337V38.7191C25.4337 41.0559 27.0941 42.5174 29.5457 42.5174C31.5925 42.5174 32.1323 42.598 32.8931 43.3684C33.4183 42.8347 33.8523 42.637 34.7454 42.5617L34.7652 42.4743L35.2349 40.994C35.2085 40.9604 34.4411 40.0717 34.4411 40.0717C34.1368 40.1752 33.8801 40.1927 33.4488 40.1927C33.0082 40.1927 32.5094 40.1389 31.9683 40.0367C31.9175 40.0245 31.8656 40.0182 31.8135 40.0179C31.7473 40.0179 31.7433 40.0233 31.7248 40.0569L31.6322 40.2142L31.4602 40.5019L31.1387 40.4253L29.7072 40.0825L29.51 40.4119L29.5404 40.4482L29.7138 40.6431L29.637 40.8986C29.5312 41.2307 29.1898 41.6192 29.0853 41.7268L28.7281 42.1167L28.4013 41.6986L28.1565 41.3853C27.8985 41.0922 27.839 40.6431 27.9845 40.1725C27.9803 40.1757 27.9752 40.1776 27.97 40.1779L27.5664 40.3487L27.3852 39.9453L27.2568 39.6616C27.1336 39.3714 27.1115 39.0471 27.194 38.7423C27.2765 38.4375 27.4587 38.1704 27.7106 37.985L28.8617 37.3222L29.9599 37.5413C29.9863 37.4338 30.026 37.0519 30.0564 36.9538C30.0353 36.9511 30.0154 36.9471 29.9943 36.9471L29.3618 37.1864L28.7532 36.7588C28.7532 36.7588 28.5151 36.5249 28.7307 36.2909L29.3195 35.3807L27.8244 33.4715L30.1226 34.4315L30.2761 34.2392L30.5857 33.8601L30.9376 34.2016C31.0301 34.2935 31.0945 34.4107 31.1228 34.539C31.7553 34.7905 32.8904 35.5313 32.991 36.736L32.6364 36.8798V36.8892C32.7171 36.9874 32.7846 37.0277 32.8058 37.0318L34.4464 37.1958C34.4887 37.1877 34.539 37.1689 34.5972 37.1528C34.8023 37.0815 35.1079 36.978 35.4704 36.978C35.7668 36.978 36.0526 37.0479 36.3264 37.1797C36.4283 37.1393 36.5514 37.1111 36.6969 37.1017L36.7763 37.099C37.6535 37.099 38.0901 37.7672 38.4407 38.301C38.4989 38.3937 38.5571 38.4798 38.618 38.5658C38.9249 39.0068 39.3258 39.6509 39.3417 39.6791L39.523 39.9655L39.3007 40.229C39.1313 40.4307 38.8733 40.666 38.4341 40.666C38.3346 40.6651 38.2353 40.6548 38.1377 40.635C38.0477 40.6175 37.9599 40.59 37.8758 40.553C37.8623 40.6479 37.8468 40.7425 37.8294 40.8367L37.5423 42.3654C39.2623 41.9352 40.3552 40.6122 40.3552 38.7191L40.3512 33.0063ZM25.4337 32.5465H37.0369C36.4574 31.9361 36.4667 31.1657 36.6135 30.6642C36.457 30.5877 36.3115 30.49 36.1809 30.3737C35.7271 30.7139 34.3432 31.7398 33.982 31.9979L33.9039 32.0517L29.3499 31.2127H29.2573C29.1488 31.2127 28.9887 31.2087 28.8141 31.1858C28.7954 31.2708 28.7529 31.3485 28.6916 31.4094C28.6304 31.4703 28.5531 31.5119 28.4691 31.5291C28.3851 31.5463 28.298 31.5384 28.2184 31.5064C28.1387 31.4743 28.0699 31.4195 28.0202 31.3485C27.9854 31.3 27.9604 31.245 27.9468 31.1866C27.9331 31.1282 27.9311 31.0676 27.9409 31.0083L27.9581 30.9075C27.4897 30.5714 27.0544 29.8185 27.2476 29.0252L27.2661 28.9418L27.3322 28.8934C27.399 28.8471 27.4679 28.8041 27.5386 28.7644L27.2079 28.7106C27.1491 28.7003 27.0966 28.6672 27.0616 28.6183C27.0265 28.5693 27.0116 28.5084 27.02 28.4484C27.0412 28.322 27.1563 28.2333 27.2793 28.2561L28.0666 28.3825L28.1393 25.5577L29.3116 24.2939L30.0445 25.8629L29.2719 28.5815L29.9678 28.6931C30.0272 28.703 30.0804 28.7364 30.1156 28.7861C30.1508 28.8357 30.1652 28.8975 30.1557 28.958C30.1471 29.0115 30.12 29.0602 30.0793 29.0952C30.0385 29.1302 29.9868 29.1493 29.9334 29.1489L29.8977 29.1475L29.3301 29.0534C29.338 29.0723 29.3486 29.0817 29.3565 29.1005C29.4197 29.2118 29.5148 29.3009 29.6291 29.3559L33.0995 29.4138C33.2463 29.2672 33.6102 28.9042 33.9859 28.5197C33.6589 28.3977 33.3718 28.1855 33.1567 27.9069C32.9417 27.6283 32.8074 27.2944 32.7687 26.9425C32.2924 26.7355 31.9617 26.4263 31.7791 26.0229C31.5568 25.5227 31.6362 25.0226 31.6957 24.7792C31.2326 24.6085 30.7458 24.2939 30.2483 23.791H25.0195C25.2445 24.4041 25.4337 25.0683 25.4337 25.7285V32.5451V32.5465Z" fill="#FFE52B"/>
<path fill-rule="evenodd" clip-rule="evenodd" d="M30.1581 35.3908C30.1377 35.3891 30.1172 35.3916 30.0978 35.3981C30.0784 35.4045 30.0604 35.4148 30.0451 35.4284C30.0297 35.4419 30.0172 35.4584 30.0083 35.4769C29.9994 35.4954 29.9943 35.5155 29.9933 35.536C29.9916 35.5565 29.9942 35.5771 30.0007 35.5966C30.0072 35.6161 30.0176 35.6341 30.0313 35.6494C30.0449 35.6648 30.0616 35.6772 30.0801 35.6859C30.0987 35.6946 30.1188 35.6994 30.1393 35.7001C30.1803 35.7027 30.2206 35.6891 30.2517 35.6622C30.2827 35.6353 30.302 35.5972 30.3055 35.5562C30.3077 35.5147 30.2934 35.4739 30.2658 35.4429C30.2382 35.4119 30.1994 35.3932 30.1581 35.3908ZM37.1604 47.3736L36.4703 45.4639C37.2917 45.2124 38.7026 44.6718 39.3363 44.3127L38.9143 45.702L40.3439 46.1794C39.4784 46.6151 38.4306 47.0226 37.1604 47.3723V47.3736ZM32.8754 49.0884C31.2126 49.0884 29.3153 48.7037 28.7552 48.5033L29.6047 46.1928C30.3095 46.4 31.7753 46.6192 32.8405 46.6124H32.9075C33.9714 46.6192 35.4359 46.3986 36.1447 46.1928L36.9929 48.5033C36.4328 48.7051 34.5355 49.0884 32.8754 49.0884ZM25.4041 46.1794L26.8352 45.702L26.4117 44.3127C27.0428 44.6718 28.4578 45.2138 29.2764 45.4639L28.5864 47.3736C27.3202 47.024 26.2684 46.6151 25.4041 46.1794ZM40.4083 45.7558L39.5373 45.4195L39.7785 44.5158L40.0425 43.53C40.0425 43.53 38.5016 44.3719 36.3269 45.0026C35.7106 45.1801 35.2443 45.2622 35.2443 45.2622V45.9333C35.2443 45.9333 34.0813 46.135 32.9075 46.135H32.8405C31.6641 46.135 30.5038 45.9333 30.5038 45.9333V45.2608C30.5038 45.2608 30.0362 45.1801 29.4198 45.0026C27.2478 44.3705 25.707 43.53 25.707 43.53L25.9669 44.5158L26.2134 45.4195L25.3398 45.7558L24.3711 46.1189C25.4805 46.6582 27.0187 47.4422 28.4256 47.8296L28.0947 48.7414C28.0947 48.7414 29.8794 49.5591 32.8526 49.5671V49.5685H32.8928V49.5671C35.87 49.5591 37.6548 48.7414 37.6548 48.7414L37.3198 47.8296C38.728 47.4422 40.2689 46.6595 41.373 46.1189L40.4083 45.7558ZM29.2403 8.96385L29.6355 9.00688L29.8057 8.64377L30.3041 7.5719L31.2287 8.05336L31.5877 8.23761L32.8714 6.95729L33.8723 7.9525L34.159 8.23761L34.5181 8.05336L35.4373 7.5719L35.9437 8.64377L36.1112 9.00688L36.5065 8.96385L36.8843 8.91947C36.7115 9.31083 36.5842 9.68336 36.4917 9.99268C35.4935 9.43187 34.1965 9.11447 32.8727 9.11447C31.5542 9.11447 30.2572 9.43187 29.255 9.99268C29.1469 9.62714 29.0162 9.26871 28.8637 8.91947L29.2389 8.96385H29.2403ZM32.8714 9.6726C34.644 9.6726 36.0603 10.2643 36.8441 10.8924C36.8441 10.8924 37.0773 9.48432 37.8705 8.24299L36.4435 8.40438L35.6972 6.81069L34.2635 7.55441L32.8714 6.17188L31.4846 7.55441L30.0482 6.81069L29.3032 8.40572L27.8762 8.24165C28.6708 9.48432 28.9026 10.8911 28.9026 10.8911C29.6905 10.263 31.1027 9.6726 32.8714 9.6726ZM55.3253 33.3573C55.3253 33.3573 54.7089 34.4372 53.294 34.4372H53.2766C51.5776 34.4265 50.8916 33.3842 50.8916 33.3842C50.8916 33.3842 50.9907 34.7398 50.3797 36.5702C49.6428 38.7758 50.3851 40.3493 50.3851 40.3493C50.3851 40.3493 49.9885 40.4583 49.5316 40.4583C49.3574 40.4583 49.1752 40.4408 49.0023 40.3951C47.5834 40.0575 47.2296 38.7583 47.2296 38.7583C47.2296 38.7583 47.3609 43.144 42.2734 43.144H42.2332C42.2332 43.144 42.682 42.5321 42.8147 40.7676C43.0559 37.513 45.2479 37.0651 45.2479 37.0651C45.2479 37.0651 44.0782 36.9172 43.5704 36.4613C42.7785 35.7391 42.8335 34.9039 42.8335 34.9039C44.6235 34.8784 45.7973 34.2664 46.691 33.2268C47.2669 32.5617 47.6555 31.7543 47.8165 30.8881C47.8165 30.8881 46.8545 31.7663 44.9934 31.7663C44.8299 31.7663 44.6557 31.7582 44.4762 31.7408C43.5945 31.6695 42.9862 31.106 42.9862 31.106C44.9237 29.8566 46.2823 27.6765 45.0778 24.395C44.1131 21.7658 41.7924 19.8009 39.4569 18.3215C38.6798 17.8333 38.2457 17.29 38.2457 16.8233C38.2457 15.7246 39.7999 15.6896 40.4377 14.9513C41.1747 14.0932 40.7124 12.7013 40.0746 11.8634C40.0746 11.8634 40.289 11.819 40.628 11.819C41.3006 11.819 42.4636 11.9885 43.4203 12.9864C44.6892 14.3071 44.1626 15.7461 44.1626 15.7461L44.503 15.8133C44.7066 15.855 44.9089 15.8644 45.1193 15.8752L45.256 15.8765C47.101 15.8765 47.925 13.9372 47.925 13.9372C47.925 13.9372 49.8866 16.3634 46.9992 18.265C46.5021 18.5892 46.2823 18.8918 46.34 19.2118L46.3855 19.423L46.5905 19.4593C48.6834 20.0309 49.7433 21.4833 51.0363 23.1322C53.0005 25.6431 55.7795 25.7238 56.1212 25.7238H56.1587C56.1587 25.7238 55.5249 27.737 53.6558 27.737C53.6249 27.737 53.5981 27.737 53.5673 27.7344C52.7098 27.7034 52.2676 27.3726 52.2676 27.3726C52.2676 27.3726 51.934 31.9411 55.3253 33.3573ZM53.6558 28.353C55.947 28.353 56.7134 26.0089 56.7455 25.9093L57.0001 25.0822L56.1426 25.1091H56.1399C55.8358 25.1091 53.3087 25.0419 51.5173 22.7516L51.3471 22.5391C50.1761 21.0422 49.0653 19.618 47.0796 18.9684C47.1589 18.8987 47.2436 18.8353 47.3328 18.7788C48.386 18.0821 48.9996 17.2362 49.1524 16.2531C49.3788 14.7751 48.4396 13.597 48.3994 13.5485L47.7616 12.7551L47.3623 13.6965C47.3355 13.7543 46.6655 15.2606 45.256 15.2606H45.1515C45.055 15.2565 44.9625 15.2525 44.8714 15.2444C44.921 14.572 44.7991 13.5338 43.8612 12.5574C42.7343 11.3833 41.3515 11.2071 40.628 11.2071C40.2421 11.2071 39.9848 11.2555 39.9567 11.2582L38.9933 11.4505L39.5869 12.2373C40.0532 12.8452 40.4766 13.9655 39.9755 14.5505C39.8147 14.7388 39.4851 14.888 39.1702 15.04C38.5217 15.3399 37.6347 15.7595 37.6347 16.8233C37.6347 17.5119 38.1666 18.2341 39.1313 18.846C41.9826 20.6495 43.7432 22.5324 44.503 24.6102C45.6794 27.8056 44.1452 29.6293 42.6539 30.5895L41.9866 31.0212L42.5722 31.5619C42.6512 31.6318 43.3654 32.2653 44.4226 32.3567C44.6235 32.3702 44.8152 32.3809 44.9947 32.3809C45.6713 32.3809 46.2488 32.2733 46.7178 32.1308C46.5776 32.3763 46.4143 32.6078 46.2301 32.822C45.3792 33.8146 44.3315 34.2664 42.8241 34.2906L42.264 34.2987L42.2211 34.8636C42.2158 34.9779 42.1742 36.0255 43.159 36.9159C43.3105 37.053 43.4927 37.1673 43.6843 37.2588C43.0143 37.864 42.3364 38.9184 42.205 40.7232C42.0938 42.2295 41.7361 42.7876 41.7321 42.7943L41.113 43.7438L42.2318 43.7586C44.0796 43.7586 45.4945 43.2476 46.4739 42.2308C46.9813 41.6968 47.3599 41.0531 47.5807 40.3493C48.1248 40.815 48.8165 41.0706 49.5316 41.0702C50.0541 41.0702 50.4909 40.9586 50.5392 40.9478L51.2533 40.7568L50.9385 40.0871C50.9143 40.0333 50.3194 38.6884 50.9599 36.7693C51.2359 35.9395 51.3766 35.1971 51.4449 34.6175C51.8951 34.8541 52.4967 35.0478 53.2752 35.0505C55.0439 35.0505 55.8224 33.7231 55.8572 33.668L56.2056 33.0574L55.5597 32.7911C53.4534 31.9116 52.9871 29.5499 52.8934 28.2723C53.085 28.3086 53.302 28.3422 53.5472 28.349L53.6558 28.353Z" fill="#1A1919"/>
<path fill-rule="evenodd" clip-rule="evenodd" d="M51.1633 18.456C51.5906 18.456 52.0904 18.6015 52.5606 19.0859C54.0412 20.5807 55.4184 20.6648 55.4184 20.6648C55.1685 21.216 54.443 21.7004 53.6919 21.7004C53.5186 21.7004 53.3426 21.6737 53.1719 21.6137C52.1522 21.272 51.7881 19.7519 49.9998 18.8057C49.9998 18.8057 50.4969 18.456 51.1633 18.456ZM49.7083 19.3449C50.5641 19.7986 51.0639 20.4085 51.5019 20.9477C51.9319 21.4749 52.3389 21.982 52.9798 22.1929C53.2055 22.2703 53.446 22.3077 53.6919 22.3077C54.6499 22.3077 55.6132 21.7231 55.9786 20.9144L56.3454 20.1056L55.4573 20.0522C55.4157 20.0522 54.2723 19.9468 53.0013 18.6549C52.4773 18.1237 51.8445 17.8461 51.1633 17.8461C50.3303 17.8461 49.7123 18.2598 49.6451 18.3025L48.8282 18.8751L49.7083 19.3449ZM50.11 27.4205V27.4512C49.5941 23.3113 46.5738 20.3218 43.2108 18.5041C42.9018 18.3386 42.613 18.1971 42.3348 18.0636C43.3573 18.2211 45.0058 18.2398 46.2795 17.1428C46.2795 17.1428 44.3314 18.5668 40.345 17.2722C41.4468 17.9849 43.5924 18.9912 45.5513 20.6194C50.4459 24.9008 46.9446 29.0755 46.9446 29.0755C48.7046 27.2484 48.7772 25.2919 48.2586 23.693C49.1856 25.2278 49.7768 27.0896 49.6854 29.3864C49.5511 32.6762 47.7332 35.5216 45.8214 37.8078C44.9024 38.9155 44.6982 40.2795 44.6982 40.2795C44.6982 40.2795 45.069 39.077 46.1317 37.8398C48.1806 35.4509 49.934 32.9725 50.1624 29.3984C50.3747 30.0484 51.248 31.8501 52.6318 32.5294C52.6318 32.5294 50.8919 31.4857 50.11 27.4205ZM23.4807 43.0835C18.3793 43.0835 18.5096 38.7313 18.5096 38.7313C18.5096 38.7313 18.1522 40.0205 16.7321 40.3555C16.5586 40.3989 16.3802 40.42 16.2014 40.4182C15.7446 40.4182 15.3469 40.3115 15.3469 40.3115C15.3469 40.3115 16.0899 38.7473 15.3496 36.5599C14.7396 34.7449 14.839 33.3982 14.839 33.3982C14.839 33.3982 14.1525 34.4326 12.4475 34.4432H12.43C11.0126 34.4432 10.3932 33.3715 10.3932 33.3715C13.7924 31.9662 13.4592 27.4326 13.4592 27.4326C13.4592 27.4326 13.0158 27.7609 12.1559 27.7929H12.0659C10.1903 27.7929 9.55481 25.7963 9.55481 25.7963H9.59378C9.94041 25.7963 12.7229 25.7163 14.6912 23.2246C15.9877 21.587 17.0518 20.147 19.1464 19.5811L19.3574 19.5437L19.4017 19.3342C19.4608 19.0165 19.2405 18.7163 18.7434 18.3946C15.848 16.5075 17.8136 14.1012 17.8136 14.1012C17.8136 14.1012 18.6359 16.0244 20.4913 16.0244L20.6257 16.023C20.8353 16.0124 21.0409 16.003 21.2437 15.9603L21.585 15.8949C21.585 15.8949 21.0556 14.4669 22.332 13.1563C23.2913 12.166 24.4562 11.9979 25.1293 11.9979C25.4719 11.9979 25.6828 12.0419 25.6828 12.0419C25.046 12.8734 24.5838 14.2547 25.3201 15.1062C25.9596 15.8389 27.5168 15.8736 27.5168 16.9639C27.5168 17.427 27.0828 17.9662 26.3049 18.4507C23.9604 19.9187 21.6347 21.8673 20.6673 24.4791C19.4608 27.7355 20.8232 29.8976 22.7673 31.1388C22.7673 31.1388 22.156 31.6966 21.2719 31.7673C21.0987 31.7839 20.9247 31.7924 20.7506 31.7927C18.8858 31.7927 17.9211 30.9225 17.9211 30.9225C17.9211 30.9225 18.0823 32.125 19.047 33.2434C19.9472 34.2737 21.1228 34.881 22.9165 34.9063C22.9165 34.9063 22.9742 35.7338 22.1802 36.4518C21.671 36.9056 20.4981 37.0524 20.4981 37.0524C20.4981 37.0524 22.6975 37.4955 22.9393 40.7252C23.071 42.4762 23.517 43.0835 23.517 43.0835H23.4807ZM24.0222 42.7365C24.0209 42.7298 23.6648 42.1759 23.5506 40.6812C23.4163 38.8901 22.7364 37.8438 22.0633 37.2432C22.2581 37.1525 22.4395 37.039 22.59 36.9029C23.5775 36.0194 23.5358 34.9811 23.5291 34.8663L23.4915 34.3058L22.9259 34.2978C21.4184 34.2737 20.3664 33.8253 19.5132 32.8404C19.3293 32.6271 19.1656 32.3975 19.0242 32.1544C19.4944 32.2972 20.0695 32.4026 20.7506 32.4026C20.932 32.4026 21.1228 32.3919 21.323 32.3786C22.0087 32.3106 22.6571 32.0358 23.1811 31.5912L23.7683 31.0533L23.0992 30.6263C21.5998 29.672 20.0668 27.8636 21.2451 24.6913C22.0069 22.6293 23.7683 20.7622 26.6327 18.9712C27.6001 18.3639 28.1294 17.6472 28.1294 16.9639C28.1294 15.9083 27.2427 15.4919 26.5924 15.1942C26.2753 15.0434 25.9448 14.894 25.7849 14.7084C25.2811 14.1279 25.7043 13.0162 26.1732 12.4129L26.7725 11.6322L25.8011 11.4413C25.7742 11.4373 25.5189 11.3906 25.1293 11.3906C24.4051 11.3906 23.0199 11.5655 21.8913 12.7306C20.9495 13.6995 20.8259 14.7311 20.8743 15.3971C20.7829 15.4051 20.6915 15.4091 20.5948 15.4131H20.4913C19.0725 15.4131 18.4035 13.9184 18.3779 13.861L17.9789 12.9268L17.334 13.7142C17.2977 13.7622 16.3532 14.9313 16.5843 16.3981C16.7361 17.3723 17.3515 18.2131 18.4075 18.9044C18.523 18.9778 18.6023 19.0406 18.6601 19.0926C16.6662 19.7372 15.5551 21.1506 14.3809 22.636L14.2116 22.8469C12.4166 25.1197 9.87592 25.1878 9.57228 25.1878L8.70703 25.1611L8.97037 25.9805C9.00127 26.0793 9.7671 28.4055 12.0659 28.4055L12.1761 28.4015C12.4193 28.3948 12.6383 28.3614 12.8317 28.3241C12.7377 29.5919 12.2674 31.9368 10.1554 32.8083L9.51048 33.0753L9.8598 33.6798C9.89205 33.7346 10.6767 35.0518 12.4529 35.0518C13.0886 35.0581 13.7164 34.9116 14.2828 34.6247C14.3513 35.1986 14.4937 35.934 14.7705 36.7574C15.4127 38.6606 14.8148 39.9965 14.792 40.0499L14.4749 40.7145L15.191 40.9027C15.2394 40.9161 15.6801 41.0255 16.2014 41.0255C16.9186 41.0273 17.6127 40.7735 18.1576 40.3101C18.3524 40.9067 18.6869 41.5807 19.266 42.1773C20.2522 43.1849 21.6696 43.6934 23.5211 43.6934L24.6429 43.6787L24.0222 42.7365Z" fill="#1A1919"/>
<path fill-rule="evenodd" clip-rule="evenodd" d="M13.1478 18.9195C13.6213 18.4278 14.1204 18.2788 14.551 18.2788C15.2129 18.2788 15.7147 18.6351 15.7147 18.6351C13.9254 19.5969 13.5567 21.1385 12.5343 21.4867C12.3678 21.5448 12.1925 21.5737 12.0163 21.572C11.2643 21.572 10.5364 21.0816 10.2889 20.5221C10.2889 20.5221 11.6665 20.4368 13.1478 18.9195ZM12.0163 22.1898C12.2625 22.1898 12.5033 22.1518 12.732 22.0733C13.3724 21.8592 13.7814 21.3458 14.2119 20.8093C14.6519 20.2634 15.1469 19.6443 16.0053 19.1837L16.8878 18.7055L16.0672 18.123C15.9999 18.081 15.3851 17.6624 14.551 17.6624C13.8675 17.6624 13.2325 17.9428 12.7092 18.482C11.4351 19.7947 10.2929 19.9003 10.2512 19.9017L9.36328 19.9545L9.72653 20.7768C10.0952 21.5964 11.0584 22.1898 12.0163 22.1898ZM16.0295 29.3751C15.9353 27.0436 16.5273 25.1538 17.4556 23.5959C16.939 25.2189 17.0089 27.2049 18.774 29.0608C18.774 29.0608 15.2653 24.8206 20.1691 20.4774C22.1307 18.8234 24.2765 17.8019 25.3797 17.0785C21.3894 18.3926 19.44 16.9458 19.44 16.9458C20.714 18.0607 22.3648 18.0431 23.3886 17.8805C23.1114 18.0173 22.8208 18.1596 22.5114 18.3289C19.144 20.1726 16.121 23.2085 15.6017 27.4108V27.3796C14.82 31.506 13.0791 32.5654 13.0791 32.5654C14.4649 31.8745 15.3366 30.0456 15.5492 29.3873C15.7806 33.0151 17.5349 35.5322 19.5853 37.9557C20.6508 39.2115 21.0248 40.4321 21.0248 40.4321C21.0248 40.4321 20.8176 39.0489 19.8933 37.9232C17.9829 35.6026 16.164 32.7144 16.0295 29.3751ZM31.6773 20.8717V21.7061C31.9625 21.3553 32.5114 21.4271 32.5114 21.4271V22.6287C32.5114 22.6287 32.4939 23.2193 32.2854 23.4754H33.4774C33.2702 23.2193 33.25 22.6287 33.25 22.6287V21.4271C33.25 21.4271 33.8016 21.3553 34.0841 21.7061V20.8717H31.6759H31.6773ZM31.166 15.9297C31.5468 16.2345 31.7674 16.286 31.7741 16.2901L31.9221 16.3592V15.5748L30.523 14.9814C30.523 14.9814 30.5351 15.4366 31.166 15.9297ZM34.4944 15.9297C35.1268 15.4366 35.1402 14.9814 35.1402 14.9814L33.7397 15.5748V16.3605L33.8877 16.2901C33.8944 16.286 34.1137 16.2345 34.4944 15.9297Z" fill="#1A1919"/>
<path fill-rule="evenodd" clip-rule="evenodd" d="M32.8496 14.0709L29.5263 12.7411C29.8087 12.0628 31.1118 11.4863 32.8496 11.485C34.5889 11.4863 35.8919 12.0628 36.1743 12.7411L32.8496 14.0709ZM35.3272 18.2387L33.0936 19.4318V14.6004L36.1252 13.5575L35.3272 18.236V18.2387ZM36.7112 19.5203L37.7319 20.1209H37.7465L38.0036 20.2724C37.427 20.4332 36.9856 20.7268 36.6157 21.1102L36.5759 21.1504C36.4887 21.2445 36.4052 21.342 36.3254 21.4427L36.279 21.5043C36.1995 21.6076 36.1239 21.7135 36.0537 21.8234L36.0152 21.8784C35.9292 22.0111 35.8475 22.1466 35.77 22.2845C35.0409 23.5541 33.881 24.3128 32.8496 24.3155C31.8183 24.3128 30.6571 23.5541 29.9306 22.2845C29.8534 22.1492 29.7725 22.0159 29.6881 21.8851L29.6403 21.814C29.5711 21.7105 29.4995 21.6086 29.4256 21.5084C29.407 21.4815 29.3898 21.4614 29.3712 21.4387C29.2934 21.3409 29.2125 21.2456 29.1287 21.1531C29.1114 21.1397 29.0995 21.1223 29.0836 21.1075C28.7048 20.7064 28.2249 20.4177 27.6957 20.2724L27.9555 20.1209H27.9661L28.9908 19.5203L30.0393 18.9103L32.8443 20.4574L32.8496 20.452L32.8576 20.4574L35.6613 18.9103L36.7112 19.5203ZM40.741 23.8155C40.5117 24.4268 40.3221 25.089 40.3221 25.7472L40.3248 29.9968C39.4486 29.8493 39.3438 28.8922 39.3412 28.8506L39.3253 28.6562L39.1357 28.6388C38.8143 28.6102 38.5139 28.4649 38.29 28.2299C37.8591 27.7943 37.8591 27.0891 37.8591 27.0824C37.8538 27.1186 37.3872 27.7795 37.9281 28.5034C38.1561 28.8091 38.4875 28.9981 38.9143 29.0718C39.0151 29.6013 39.4048 30.3507 40.3248 30.466V32.5439H37.7385C36.5455 31.8722 37.0505 30.6899 37.0744 30.6389L37.1751 30.4137L36.9471 30.3266C35.6546 29.8413 36.0112 28.5356 36.0285 28.4793L36.0815 28.2889L35.9039 28.2058C34.8381 27.7044 34.9826 26.3558 34.9971 26.2995C34.6684 26.569 34.5504 27.1173 34.7758 27.6575C34.6538 27.7996 34.4894 27.9699 34.3105 28.1576C33.9991 28.0888 33.7187 27.9183 33.5127 27.6724C33.3067 27.4265 33.1864 27.1188 33.1704 26.7969L33.1691 26.6387L33.0233 26.5824C32.5925 26.4215 32.2969 26.1775 32.1497 25.8518C31.9867 25.4912 32.0437 25.1145 32.0887 24.9308C32.3365 24.9828 32.5887 25.0097 32.8417 25.0112H32.8589C32.9875 25.0112 33.1134 25.0032 33.2381 24.9911C33.9274 24.9214 34.6962 24.6225 35.4995 23.8155H40.741ZM37.5092 42.3353L37.7982 40.8111L37.8446 40.5296C38.0229 40.6003 38.2124 40.6379 38.404 40.6409C38.8441 40.6409 39.1012 40.4049 39.2722 40.2052L39.4923 39.9438L39.312 39.6569C39.2961 39.6287 38.8944 38.9866 38.5869 38.5469C38.5258 38.46 38.467 38.3715 38.4106 38.2815C38.0593 37.7506 37.6205 37.0844 36.7403 37.0844L36.6621 37.087C36.5353 37.0939 36.4103 37.1197 36.2909 37.1634C36.0231 37.0339 35.7302 36.9662 35.4333 36.965C35.1346 36.9723 34.8393 37.0303 34.5597 37.1366C34.5014 37.1541 34.4483 37.1728 34.4072 37.1809L32.7635 37.0173C32.7423 37.012 32.676 36.9718 32.5938 36.8752V36.8658L32.9491 36.7224C32.8496 35.5213 31.7109 34.7826 31.0773 34.5319C31.0492 34.4035 30.9847 34.2861 30.8917 34.1941L30.5391 33.8549L30.2289 34.2316L30.0765 34.4247L27.7725 33.4662L29.2705 35.3711L28.6806 36.2787C28.4632 36.5106 28.7031 36.7452 28.7031 36.7452L29.3129 37.1715L29.9466 36.9315C29.9678 36.9315 29.9863 36.9369 30.0089 36.9396C29.9784 37.0374 29.9386 37.4195 29.9121 37.5254L28.8132 37.3069L27.6599 37.9678C27.0647 38.4102 26.9838 39.1394 27.2052 39.6395L27.3324 39.9237L27.5141 40.3245L27.9184 40.1556C27.925 40.1529 27.9303 40.1516 27.9343 40.1475C27.7885 40.6181 27.8481 41.0645 28.1066 41.3581L28.3518 41.6704L28.6779 42.0887L29.0359 41.6986C29.1419 41.5913 29.4839 41.2039 29.5886 40.8714L29.6655 40.6181L29.4919 40.4237L29.4627 40.3875L29.6589 40.0591L31.0932 40.4022L31.4167 40.4773L31.589 40.1891L31.6818 40.0336C31.699 40.0001 31.703 39.9947 31.7693 39.9947C31.821 39.9947 31.8713 40.0001 31.9257 40.0135C32.4148 40.1111 32.9118 40.1627 33.4104 40.1677C33.8386 40.1677 34.097 40.1516 34.4019 40.0483C34.4019 40.0483 35.1721 40.9331 35.1986 40.968L34.7267 42.4426L34.7055 42.5311C33.8134 42.6048 33.3786 42.8032 32.8523 43.3354C32.0887 42.5686 31.5492 42.4868 29.4985 42.4868C27.0421 42.4868 25.3772 41.0296 25.3772 38.6984V33.0037H40.3248L40.3274 38.6984C40.3274 40.5872 39.2325 41.905 37.5092 42.3353ZM28.3028 39.1153L28.381 39.3124C28.328 39.484 27.7447 39.7279 27.7447 39.7279L27.6201 39.4478C27.5405 39.2558 27.5269 39.0423 27.5815 38.8416C27.636 38.6408 27.7556 38.4644 27.921 38.3405L28.8662 37.7573L29.8697 37.9718C29.8498 38.2949 30.0407 38.5362 30.0407 38.5362L28.9908 38.3324L28.3611 38.7721C28.2551 38.8472 28.2471 38.9866 28.3028 39.1153ZM37.3501 40.724L37.028 42.4278C36.8212 42.4573 36.6038 42.4734 36.3811 42.4815L36.7204 40.846C36.8212 40.358 35.5327 40.2065 34.8951 39.2507C34.5836 39.6046 33.999 39.7105 33.4104 39.7105C32.8722 39.7105 32.3366 39.6234 32.0092 39.5577C31.9304 39.5438 31.8506 39.5362 31.7706 39.5349C31.581 39.5349 31.41 39.5939 31.2907 39.7963L31.1979 39.9572L29.4402 39.5376L29.0027 40.2709C28.9417 40.3902 28.9364 40.4894 29.0359 40.6007L29.1552 40.732C29.073 40.9908 28.7071 41.3835 28.7071 41.3835L28.446 41.0524C28.2392 40.8192 28.2736 40.3902 28.4884 39.9934L29.1857 38.8003L30.6743 39.0188L30.4437 38.4839C30.1321 37.7774 30.6067 36.8792 30.6571 36.3618C30.6399 36.5186 30.498 36.5535 30.3336 36.5535C30.1825 36.5535 30.0155 36.5253 29.9041 36.5253C29.8604 36.5253 29.8219 36.5294 29.8021 36.5441L29.3991 36.7921L29.0809 36.5079C29.0425 36.4543 29.0306 36.3243 29.1233 36.2277L29.8604 35.3912L28.9908 34.3617L30.2077 34.9824L30.5802 34.5252C30.6823 34.6271 30.6372 34.8912 30.6372 34.8912C31.0176 34.9019 32.0848 35.4985 32.1404 36.8927C32.1444 36.9356 32.1444 36.9825 32.1444 37.0294L32.1723 37.075C32.2478 37.1809 32.4559 37.4503 32.7197 37.4745L34.4033 37.6434H34.4099C34.5955 37.6434 34.9627 37.4235 35.4333 37.4235C35.6918 37.4235 35.9768 37.4905 36.2817 37.6849C36.2817 37.6849 36.4354 37.5616 36.6833 37.5482C36.7019 37.5455 36.7231 37.5455 36.7403 37.5455C37.4959 37.5455 37.8101 38.2372 38.2157 38.8123C38.5206 39.2494 38.9276 39.8982 38.9276 39.8982C38.7778 40.0792 38.6373 40.1797 38.4026 40.1797C38.3296 40.18 38.2568 40.1728 38.1852 40.1583C37.3766 40.0068 37.2586 38.3217 36.7973 38.1876C36.7731 38.1812 36.7481 38.178 36.7231 38.1783C36.5746 38.1783 36.5097 38.3123 36.5097 38.3123C36.7218 38.8874 36.5972 39.1193 36.8252 39.5631C36.9948 39.8915 37.2958 40.1609 37.4204 40.2896C37.4204 40.2896 37.3872 40.539 37.3501 40.7253V40.724ZM35.8005 42.4935C35.5751 42.4935 35.3657 42.4962 35.1774 42.5043L35.6706 40.9479C35.7474 40.732 35.3577 40.4545 35.1973 40.2105C35.4399 40.3661 36.0696 40.7066 36.3731 40.8406C36.1764 41.3895 35.9855 41.9405 35.8005 42.4935ZM28.4672 28.4686L28.5374 25.7633L29.1366 25.1212L29.5131 25.9202L28.7707 28.5168L28.4658 28.4699L28.4672 28.4686ZM28.898 29.3078C28.989 29.484 29.1267 29.6311 29.2957 29.7327C29.291 29.9898 29.2667 30.2462 29.2228 30.4995C29.2095 30.5585 29.1963 30.6135 29.179 30.6684C29.1711 30.7033 29.1605 30.7314 29.1538 30.7542C28.9696 30.7542 28.6103 30.7314 28.3174 30.6228C27.9913 30.5022 27.5048 29.8963 27.6175 29.2287C27.758 29.1415 28.0841 28.9552 28.3903 28.9552C28.6249 28.9552 28.7853 29.0678 28.898 29.3078ZM35.8389 30.0343C35.3789 30.3789 34.1912 31.2569 33.7603 31.5626L29.6138 30.8065L29.643 30.6952C29.696 30.4767 29.753 30.1791 29.7557 29.8292L33.2407 29.8855L33.307 29.8185C33.36 29.7649 34.4642 28.6831 35.0263 28.0624C35.1602 28.2326 35.3272 28.3935 35.5473 28.5356C35.473 28.9512 35.5035 29.5383 35.8389 30.0343ZM30.2011 23.8155C30.7008 24.3168 31.1873 24.6292 31.6513 24.8008C31.5916 25.0421 31.5121 25.5435 31.7348 26.0408C31.9177 26.443 32.2491 26.7513 32.7277 26.9577C32.7807 27.4538 33.0896 28.2004 33.9473 28.5302C33.5708 28.9136 33.2049 29.2756 33.0591 29.4204L29.5807 29.3654C29.4658 29.3098 29.3705 29.22 29.3076 29.108C29.301 29.0906 29.2891 29.0812 29.2811 29.0624L29.8498 29.1563L29.8856 29.1576C29.9391 29.158 29.9909 29.139 30.0317 29.1041C30.0726 29.0692 30.0997 29.0206 30.1083 28.9673C30.1179 28.9072 30.1036 28.8457 30.0686 28.7963C30.0336 28.7468 29.9807 28.7133 29.9214 28.7032L29.2228 28.5906L29.9969 25.8813L29.2639 24.3168L28.088 25.577L28.0165 28.3935L27.2264 28.2661C27.1044 28.242 26.9878 28.3332 26.9652 28.4578C26.9564 28.5182 26.9713 28.5796 27.0068 28.629C27.0422 28.6784 27.0953 28.7117 27.1548 28.7219L27.4862 28.7729C27.3669 28.8412 27.2887 28.8962 27.2794 28.9029L27.2131 28.9512L27.1946 29.0343C27.0024 29.8252 27.4372 30.5759 27.9064 30.9111L27.8892 31.0116C27.8706 31.1323 27.8972 31.2529 27.9687 31.3508C28.0095 31.4102 28.064 31.4587 28.1276 31.4918C28.1911 31.525 28.2618 31.542 28.3333 31.5411C28.4337 31.5403 28.531 31.5051 28.6092 31.4414C28.6874 31.3776 28.742 31.289 28.7641 31.1899C28.9391 31.21 29.0995 31.2154 29.2082 31.2154H29.3023L33.8637 32.0505L33.942 31.9983C34.3052 31.7409 35.6918 30.718 36.1451 30.3789C36.2711 30.4874 36.4102 30.5866 36.5786 30.6684C36.4315 31.1685 36.4222 31.9366 37.0028 32.5452H25.3772V25.7486C25.3772 25.089 25.1876 24.4268 24.9622 23.8155H30.2011ZM29.5727 13.5602L32.6071 14.6018V19.4305L30.3734 18.2374L29.5727 13.5588V13.5602ZM36.975 12.977C36.975 11.7987 35.017 10.7383 32.8563 10.7383H32.843C30.6823 10.7383 28.7257 11.7987 28.7257 12.977L28.7681 13.2666L29.6311 18.2843L28.7641 18.7937L26.5225 20.1209H26.5304C26.5304 20.1209 26.0267 20.3836 25.7921 20.5445C24.9384 21.1451 24.7568 22.0218 25.2526 22.3837C25.3745 21.6692 25.9326 20.9225 26.9759 20.9225C27.7288 20.9225 28.3015 21.3167 28.7654 21.9052C28.8847 22.054 28.9974 22.2135 29.1021 22.3837C29.232 22.5996 29.3633 22.7899 29.4919 22.9723H23.7148C24.139 23.8369 24.5434 24.7525 24.5434 25.7472V38.6997C24.5434 41.834 26.9228 43.33 29.4972 43.33C31.4869 43.33 31.7547 43.2389 32.8523 44.3462C33.9446 43.2389 34.2137 43.33 36.2048 43.33C38.7804 43.33 41.1559 41.834 41.1559 38.6997V25.7472C41.1559 24.7525 41.5603 23.8369 41.9871 22.9723H36.2074C36.3373 22.7899 36.4672 22.5996 36.5972 22.3837C36.7032 22.2135 36.8159 22.054 36.9325 21.9052C37.3992 21.314 37.9718 20.9225 38.7248 20.9225C39.768 20.9225 40.3248 21.6692 40.4481 22.3837C40.9438 22.0218 40.7649 21.1451 39.9046 20.5445C39.6766 20.3836 39.1702 20.1209 39.1702 20.1209H39.1795L36.9325 18.7937L36.0709 18.2843L36.9325 13.2666L36.975 12.977Z" fill="#1A1919"/>
<path d="M74.6074 34.5583H78.6393V25.2282H84.1764V21.833H69.0703V25.2282H74.6074V34.5583ZM96.4064 21.833L89.6866 29.2383V21.833H85.7891V34.5583H89.2297L95.9495 27.153V34.5583H99.847V21.833H96.4064ZM106.697 29.8264H112.96V34.5583H116.857V21.833H112.96V26.4847H106.697V21.833H102.8V34.5583H106.697V29.8264ZM127.711 34.5583C128.598 34.5583 129.405 34.4781 130.157 34.2643C132.173 33.7028 133.49 32.0721 133.49 29.8532C133.49 27.7412 132.361 26.2708 130.56 25.6025C129.7 25.2817 128.679 25.2549 127.711 25.2549H123.706V21.833H119.809V34.5583H127.711ZM123.706 28.2491H127.039C127.577 28.2491 128.088 28.2491 128.544 28.4095C129.19 28.6234 129.566 29.1581 129.566 29.7997C129.566 30.468 129.19 31.0295 128.571 31.2968C128.141 31.4839 127.711 31.4839 127.039 31.4839H123.706V28.2491ZM139.404 29.7462H140.479L145.129 34.5583H150.317L143.839 27.9283L150.075 21.833H145.183L140.479 26.6184H139.404V21.833H135.506V34.5583H139.404V29.7462Z" fill="black"/>
<path d="M158.377 21.239C153.134 21.239 149.988 24.2529 149.988 28.1434C149.988 32.034 153.134 35.0479 158.377 35.0479C163.593 35.0479 166.739 32.034 166.739 28.1434C166.739 24.2529 163.593 21.239 158.377 21.239ZM158.377 31.8696C155.769 31.8696 154.102 30.2805 154.102 28.1434C154.102 26.0064 155.769 24.4447 158.377 24.4447C160.958 24.4447 162.652 26.0064 162.652 28.1434C162.652 30.2805 160.958 31.8696 158.377 31.8696ZM179.722 22.1706V20.8555H175.824V22.1706C170.93 22.2802 168 24.3899 168 28.116C168 31.8422 170.93 33.7875 175.824 33.8971V35.2122H179.722V33.8971C184.643 33.7875 187.573 31.8422 187.573 28.116C187.573 24.3899 184.643 22.2802 179.722 22.1706ZM175.824 31.1025C173.135 30.9929 171.952 29.8695 171.952 28.116C171.952 26.3626 173.135 25.1022 175.824 24.9926V31.1025ZM179.722 31.1025V24.9926C182.438 25.1022 183.594 26.3626 183.594 28.116C183.594 29.8695 182.438 30.9929 179.722 31.1025ZM200.543 22.1706V20.8555H196.645V22.1706C191.751 22.2802 188.821 24.3899 188.821 28.116C188.821 31.8422 191.751 33.7875 196.645 33.8971V35.2122H200.543V33.8971C205.464 33.7875 208.394 31.8422 208.394 28.116C208.394 24.3899 205.464 22.2802 200.543 22.1706ZM196.645 31.1025C193.956 30.9929 192.773 29.8695 192.773 28.116C192.773 26.3626 193.956 25.1022 196.645 24.9926V31.1025ZM200.543 31.1025V24.9926C203.259 25.1022 204.415 26.3626 204.415 28.116C204.415 29.8695 203.259 30.9929 200.543 31.1025Z" fill="black"/>
</svg>
