<svg width="216" height="54" viewBox="0 0 216 54" fill="none" xmlns="http://www.w3.org/2000/svg">
<path d="M56.0953 11.13C56.0953 15.6479 56.0953 20.1314 56.0953 24.6837C54.6008 24.6837 53.2265 24.6837 51.7148 24.6837C51.6804 24.2886 51.6461 23.9107 51.6461 23.5499C51.6461 18.3105 51.6633 13.0883 51.6289 7.8489C51.6289 6.9728 51.8694 6.69795 52.7455 6.73231C55.1333 6.78384 57.5211 6.76666 59.9089 6.74949C60.5788 6.74949 60.8881 6.9728 61.077 7.64276C61.9188 10.5631 62.8464 13.4662 63.7397 16.3694C63.7912 16.5583 63.9286 16.7129 64.1176 17.0909C64.6845 15.3043 65.1998 13.7239 65.6808 12.1435C66.1446 10.6318 66.5397 9.1201 67.0551 7.62558C67.1753 7.28202 67.6048 6.80102 67.8968 6.78384C70.7484 6.73231 73.5829 6.76666 76.5032 6.76666C76.5032 12.7447 76.5032 18.6541 76.5032 24.7352C75.1976 24.7352 73.8749 24.7696 72.5522 24.6837C72.3632 24.6665 72.0884 24.0825 72.0884 23.7561C72.054 20.1314 72.0712 16.524 72.0712 12.8993C72.0712 12.3153 72.0712 11.7312 72.0712 11.1815C71.0405 10.7864 70.5767 10.9925 70.2846 12.0061C69.1337 15.9571 67.8625 19.8909 66.66 23.8248C66.4538 24.5119 66.1446 24.804 65.406 24.7352C64.5642 24.6665 63.7225 24.6494 62.8807 24.7524C62.0218 24.8383 61.6439 24.5119 61.4034 23.6874C60.2353 19.7879 58.9641 15.9056 57.8303 11.9889C57.5383 10.9925 57.0916 10.8551 56.0953 11.13Z" fill="#0061E4"/>
<path d="M136.903 24.7529C135.322 24.7529 133.948 24.7873 132.591 24.7186C132.282 24.7014 131.87 24.3578 131.698 24.0658C131.165 23.0523 130.753 21.9529 130.22 20.9393C130.083 20.6645 129.671 20.4068 129.362 20.3896C128.107 20.3209 126.836 20.3725 125.582 20.3553C124.912 20.3381 124.637 20.613 124.655 21.3001C124.689 22.1762 124.62 23.0523 124.672 23.9284C124.706 24.5983 124.448 24.7873 123.813 24.7529C122.868 24.7186 121.923 24.7186 120.978 24.7529C120.326 24.7873 120.137 24.5124 120.137 23.894C120.154 18.5 120.154 13.0888 120.137 7.69481C120.137 7.04203 120.291 6.75 121.013 6.75C124.448 6.78436 127.884 6.71564 131.32 6.78436C134.807 6.85307 137.47 10.1513 137.349 14.068C137.281 15.9233 136.645 17.5208 135.219 18.689C134.532 19.2559 134.601 19.7197 134.893 20.3725C135.563 21.7467 136.181 23.1554 136.903 24.7529ZM128.056 16.2496C128.932 16.2496 129.808 16.284 130.684 16.2496C132.162 16.1809 133.089 15.2189 133.175 13.776C133.261 12.3158 132.351 11.1305 130.89 11.0446C129.069 10.9243 127.249 10.9931 125.428 10.9931C124.947 10.9931 124.655 11.1477 124.672 11.7317C124.706 12.9858 124.637 14.257 124.723 15.511C124.741 15.7686 125.17 16.1981 125.445 16.2325C126.304 16.3184 127.18 16.2496 128.056 16.2496Z" fill="#0061E4"/>
<path d="M148.549 15.6479C148.549 13.0539 148.584 10.46 148.532 7.84888C148.515 6.95561 148.824 6.71511 149.683 6.73229C154.871 6.76665 160.076 6.76665 165.264 6.73229C166.106 6.73229 166.432 6.93843 166.415 7.84888C166.38 13.1398 166.38 18.4479 166.415 23.7389C166.415 24.5291 166.174 24.7524 165.384 24.7524C160.128 24.7181 154.854 24.7181 149.597 24.7524C148.738 24.7524 148.515 24.4432 148.532 23.653C148.549 20.9903 148.532 18.3277 148.549 15.6479C148.532 15.6479 148.532 15.6479 148.549 15.6479ZM150.078 11.4907C150.834 13.8098 151.504 15.9743 152.243 18.1216C152.311 18.3277 152.707 18.5338 152.947 18.551C155.97 18.5854 158.994 18.5854 162 18.551C162.241 18.551 162.653 18.3449 162.721 18.1559C163.443 16.0086 164.096 13.8441 164.852 11.4563C162.137 11.7484 159.286 10.3913 157.448 13.5865C157.053 13.1226 156.829 12.8134 156.554 12.5558C156.142 12.1778 155.73 11.5766 155.283 11.5594C153.617 11.422 151.933 11.4907 150.078 11.4907ZM157.499 21.7462C158.942 21.7462 160.368 21.729 161.811 21.7634C162.447 21.7805 162.687 21.5401 162.67 20.9045C162.653 20.3547 162.601 19.9253 161.897 19.9253C158.959 19.9425 156.005 19.9425 153.067 19.9253C152.397 19.9253 152.26 20.286 152.26 20.8701C152.26 21.4713 152.414 21.7805 153.084 21.7634C154.562 21.7118 156.022 21.7462 157.499 21.7462ZM157.516 8.91394C156.967 9.51519 156.606 9.89311 156.125 10.4085C156.709 10.7692 157.121 11.2158 157.585 11.2502C157.86 11.2846 158.478 10.6318 158.427 10.3569C158.375 9.89311 157.929 9.49801 157.516 8.91394Z" fill="#0061E4"/>
<path d="M87.9232 45.8636C86.3256 45.8636 84.917 45.898 83.5255 45.8292C83.2507 45.8121 82.8728 45.4513 82.7353 45.1765C82.2887 44.3004 81.8764 43.4071 81.5328 42.4966C81.2923 41.861 80.9659 41.5518 80.2273 41.6034C79.042 41.6721 77.8395 41.6377 76.6542 41.6205C76.0358 41.6034 75.7609 41.8095 75.7781 42.4623C75.8124 43.304 75.7609 44.1458 75.7953 44.9875C75.8124 45.5887 75.6578 45.898 74.9879 45.8808C74.0087 45.8464 73.0295 45.8636 72.0504 45.8808C71.5522 45.8808 71.2773 45.7605 71.2773 45.1765C71.2945 39.5248 71.2773 33.8903 71.2773 28.1355C71.6553 28.1012 71.9988 28.0496 72.3252 28.0496C75.5204 28.0496 78.7156 28.0324 81.8936 28.0496C84.728 28.0496 87.0127 29.63 87.9747 32.2068C89.0741 35.1271 88.4729 38.0131 86.3428 39.9027C85.8103 40.3837 85.6041 40.7616 85.982 41.4831C86.6692 42.8402 87.2189 44.2832 87.9232 45.8636ZM79.1622 37.5149C79.1622 37.5149 79.1622 37.4977 79.1622 37.5149C79.9696 37.5149 80.777 37.5149 81.5844 37.4977C83.1648 37.4634 84.1955 36.4842 84.2642 34.9897C84.3329 33.5295 83.3709 32.2927 81.8592 32.2068C80.0727 32.1037 78.2861 32.1553 76.4996 32.2068C76.2419 32.224 75.8296 32.6878 75.8124 32.9626C75.7437 34.2167 75.7437 35.4879 75.8124 36.7419C75.8296 36.9996 76.2591 37.429 76.5339 37.4462C77.3928 37.5664 78.2861 37.5149 79.1622 37.5149Z" fill="#0061E4"/>
<path d="M117.281 11.026C113.433 11.026 109.774 11.026 106.184 11.026C106.081 11.1635 106.046 11.1978 106.046 11.215C105.634 13.5341 105.789 13.723 108.108 13.723C110.186 13.723 112.248 13.7402 114.326 13.7059C114.758 13.7059 115.202 13.7059 115.202 13.7059C115.202 13.7059 115.211 14.2254 115.202 14.5476C115.168 15.5268 115.202 16.4888 115.202 17.6054C114.086 17.6054 113.072 17.6054 112.076 17.6054C110.358 17.6054 108.64 17.6225 106.922 17.6054C106.27 17.6054 105.926 17.8459 105.995 18.533C106.012 18.7735 106.029 19.0312 105.995 19.2717C105.875 20.1993 106.287 20.4741 107.18 20.4741C110.513 20.4226 113.828 20.457 117.315 20.457C117.315 21.7453 117.35 22.965 117.281 24.1675C117.264 24.3565 116.834 24.7 116.594 24.7C111.818 24.7344 107.043 24.7172 102.284 24.7344C101.425 24.7344 101.563 24.1331 101.563 23.635C101.563 18.825 101.563 14.0151 101.58 9.22231C101.58 6.74862 101.58 6.74862 104.071 6.74862C108.142 6.74862 112.213 6.7658 116.285 6.73145C117.144 6.73145 117.384 7.0063 117.35 7.83086C117.229 8.82721 117.281 9.84073 117.281 11.026Z" fill="#0061E4"/>
<path d="M67.8244 32.3985C66.5017 33.0856 65.2477 33.7556 63.9936 34.4084C61.7604 31.7114 59.7162 30.9727 57.4315 32.0034C55.4388 32.8967 54.0474 35.4047 54.3737 37.5176C54.786 40.2318 56.5554 42.0527 59.0291 42.3448C60.8672 42.5509 62.9458 41.5546 63.6157 39.957C62.5335 39.957 61.5371 39.9054 60.558 39.9742C59.6647 40.0429 59.3726 39.6993 59.4414 38.8404C59.5101 38.0502 59.4585 37.2428 59.4585 36.3495C62.6537 36.3495 65.7802 36.3495 68.9066 36.3495C69.5938 40.4723 66.244 45.162 61.8463 46.2614C56.8646 47.5155 52.1062 44.9043 50.3025 39.9398C48.7221 35.5765 50.9724 30.3027 55.3014 28.2929C59.888 26.1456 65.1961 27.829 67.8244 32.3985Z" fill="#0061E4"/>
<path d="M99.4327 24.7537C98.0584 24.7537 96.7185 24.788 95.3958 24.7193C95.1553 24.7021 94.8289 24.3757 94.7086 24.1181C94.3822 23.345 94.2276 22.5033 93.8497 21.7646C93.6779 21.421 93.1797 21.0259 92.819 21.0088C90.2938 20.9401 87.7686 20.9916 85.2433 20.9744C84.5906 20.9744 84.3157 21.2149 84.1439 21.8333C83.9378 22.6064 83.6629 23.3794 83.3365 24.1009C83.2163 24.3757 82.8384 24.7021 82.5635 24.7193C81.3095 24.788 80.0555 24.7537 78.5781 24.7537C78.8358 23.9119 79.0248 23.1561 79.2824 22.4174C80.9316 17.5559 82.615 12.6944 84.247 7.81577C84.5218 7.02557 84.8826 6.73353 85.7415 6.75071C88.0262 6.81943 90.311 6.78507 92.5957 6.76789C93.1454 6.76789 93.489 6.85378 93.6951 7.45503C95.5504 12.9521 97.44 18.4492 99.3124 23.9463C99.3811 24.1524 99.3811 24.4101 99.4327 24.7537ZM92.149 16.7142C91.5306 14.8589 91.0153 13.1754 90.3968 11.5091C90.2938 11.2343 89.7612 10.9594 89.4349 10.9766C88.868 10.9938 87.9403 11.0625 87.7857 11.3889C87.0642 13.0552 86.5317 14.8245 85.8789 16.7142C88.0434 16.7142 90.0017 16.7142 92.149 16.7142Z" fill="#0061E4"/>
<path d="M99.7977 46.4984C94.8331 46.653 90.195 42.5302 90.2465 36.8785C90.2981 31.2784 95.0049 27.2071 100.193 27.3617C105.346 27.5335 109.555 31.8624 109.469 37.2049C109.4 42.2382 105.003 46.7217 99.7977 46.4984ZM104.951 36.9816C104.934 34.0269 102.546 31.5017 99.7977 31.5704C97.0663 31.6219 94.7644 34.1128 94.7644 37.0159C94.7644 39.8847 97.1866 42.4099 99.8836 42.3756C102.649 42.324 104.968 39.8675 104.951 36.9816Z" fill="#0061E4"/>
<path d="M136.86 45.8647C135.451 45.8647 134.163 45.9162 132.874 45.8131C132.668 45.796 132.359 45.1775 132.342 44.834C132.307 40.1615 132.325 35.5061 132.325 30.8336C132.325 28.0507 132.325 28.0507 135.108 28.0507C137.701 28.0507 140.295 28.0851 142.889 28.0335C146.188 27.9648 149.091 30.6275 149.469 33.9944C149.864 37.5675 147.819 40.7455 144.453 41.467C142.975 41.7762 141.378 41.6216 139.849 41.6388C136.843 41.656 136.843 41.656 136.843 44.6966C136.86 45.0058 136.86 45.3322 136.86 45.8647ZM140.192 37.5847C140.192 37.5503 140.192 37.5332 140.192 37.4988C141.068 37.4988 141.944 37.5332 142.821 37.4988C144.178 37.4301 145.14 36.4681 145.226 35.1797C145.329 33.6337 144.624 32.5171 143.216 32.3453C141.807 32.1735 140.347 32.1907 138.921 32.1735C136.86 32.1563 136.843 32.1735 136.86 34.2177C136.877 35.2656 136.533 36.743 137.066 37.224C137.701 37.808 139.11 37.516 140.192 37.5847Z" fill="#0061E4"/>
<path d="M111.506 28.034C112.897 28.034 114.151 27.9996 115.405 28.0683C115.611 28.0855 115.955 28.618 115.972 28.9273C116.007 31.6243 115.972 34.3384 115.989 37.0354C116.007 39.6809 117.535 41.6393 119.803 41.9656C122.637 42.3779 124.939 40.3165 124.974 37.2759C125.008 34.5446 125.008 31.796 124.974 29.0647C124.956 28.2917 125.18 27.9824 125.987 28.034C126.898 28.0855 127.808 27.9996 128.719 28.0683C128.976 28.0855 129.44 28.4634 129.44 28.6696C129.423 32.1053 129.577 35.5581 129.251 38.9766C128.873 42.9963 125.042 46.0885 121.005 46.329C115.56 46.6553 111.403 42.1718 111.506 37.087C111.557 34.1151 111.506 31.1776 111.506 28.034Z" fill="#0061E4"/>
<path d="M152.613 13.398C153.85 13.209 154.915 13.1231 155.705 14.2569C156.169 14.9097 156.685 15.5281 157.148 16.1121C158.986 14.944 159.725 12.5734 162.319 13.4838C162.027 14.4287 161.752 15.4078 161.391 16.3698C161.323 16.5588 160.91 16.7477 160.653 16.7477C158.54 16.7821 156.444 16.7821 154.331 16.7477C154.056 16.7477 153.661 16.4901 153.558 16.2496C153.18 15.3391 152.922 14.3943 152.613 13.398Z" fill="#0061E4"/>
</svg>
