<svg width="216" height="55" viewBox="0 0 216 55" fill="none" xmlns="http://www.w3.org/2000/svg">
<path fill-rule="evenodd" clip-rule="evenodd" d="M42.9508 6.07006C41.9916 6.07006 41.214 6.85121 41.214 7.81481C41.214 8.77841 41.9916 9.55956 42.9508 9.55956C43.91 9.55956 44.6876 8.77841 44.6876 7.81481C44.6876 6.85121 43.91 6.07006 42.9508 6.07006ZM40.0068 7.21879C40.2822 5.83838 41.4956 4.79847 42.9508 4.79847C44.406 4.79847 45.6194 5.83838 45.8948 7.21879H54.2836C54.559 5.83838 55.7725 4.79847 57.2277 4.79847C58.6829 4.79847 59.8963 5.83838 60.1717 7.21879H68.5605C68.8359 5.83838 70.0493 4.79847 71.5045 4.79847C72.9597 4.79847 74.1731 5.83838 74.4485 7.21879H80.9604C82.3585 7.21879 83.492 8.35741 83.492 9.76196V35.1936C83.492 36.5982 82.3585 37.7368 80.9604 37.7368H66.894V39.9621C66.894 41.0155 66.0439 41.8695 64.9953 41.8695H61.975V49.1811H69.7741V50.4527H44.6162C44.2666 50.4527 43.9833 50.168 43.9833 49.8169C43.9833 49.4658 44.2666 49.1811 44.6162 49.1811H52.4814V41.8695H49.4891C48.4405 41.8695 47.5904 41.0155 47.5904 39.9621V37.7368H33.4926C32.0944 37.7368 30.9609 36.5982 30.9609 35.1936V9.76196C30.9609 8.35741 32.0944 7.21879 33.4926 7.21879H40.0068ZM40.0238 8.49038H33.4926C32.7935 8.49038 32.2267 9.05968 32.2267 9.76196V35.1936C32.2267 35.8959 32.7935 36.4652 33.4926 36.4652H80.9604C81.6595 36.4652 82.2262 35.8959 82.2262 35.1936V9.76196C82.2262 9.05969 81.6595 8.49038 80.9604 8.49038H74.4315C74.1262 9.831 72.9316 10.8311 71.5045 10.8311C70.0774 10.8311 68.8828 9.831 68.5775 8.49038H60.1547C59.8493 9.831 58.6548 10.8311 57.2277 10.8311C55.8006 10.8311 54.606 9.831 54.3006 8.49038H45.8779C45.5725 9.831 44.3779 10.8311 42.9508 10.8311C41.5237 10.8311 40.3291 9.831 40.0238 8.49038ZM48.8562 37.7368V39.9621C48.8562 40.3132 49.1396 40.5979 49.4891 40.5979H64.9953C65.3448 40.5979 65.6282 40.3132 65.6282 39.9621V37.7368H48.8562ZM53.7472 41.8695V49.1811H60.7092V41.8695H53.7472ZM57.2277 6.07006C56.2684 6.07006 55.4908 6.85121 55.4908 7.81481C55.4908 8.77841 56.2684 9.55956 57.2277 9.55956C58.1869 9.55956 58.9645 8.77841 58.9645 7.81481C58.9645 6.85121 58.1869 6.07006 57.2277 6.07006ZM71.5045 6.07006C70.5453 6.07006 69.7677 6.85121 69.7677 7.81481C69.7677 8.77841 70.5453 9.55956 71.5045 9.55956C72.4637 9.55956 73.2413 8.77841 73.2413 7.81481C73.2413 6.85121 72.4637 6.07006 71.5045 6.07006Z" fill="#2C79BE"/>
<path d="M64.8449 12.62H66.4693V14.2518H64.8449V12.62Z" fill="#2C79BE"/>
<path d="M64.8449 15.0677H66.4693V16.6994H64.8449V15.0677Z" fill="#2C79BE"/>
<path d="M69.718 12.62H71.3424V14.2518H69.718V12.62Z" fill="#2C79BE"/>
<path d="M69.718 15.0677H71.3424V16.6994H69.718V15.0677Z" fill="#2C79BE"/>
<path d="M69.718 17.5153H71.3424V19.1471H69.718V17.5153Z" fill="#2C79BE"/>
<path d="M72.1543 15.0677H73.7787V16.6994H72.1543V15.0677Z" fill="#2C79BE"/>
<path d="M72.1543 17.5153H73.7787V19.1471H72.1543V17.5153Z" fill="#2C79BE"/>
<path d="M62.4084 12.62H64.0327V14.2518H62.4084V12.62Z" fill="#2C79BE"/>
<path d="M62.4084 15.0677H64.0327V16.6994H62.4084V15.0677Z" fill="#2C79BE"/>
<path d="M62.4084 17.5153H64.0327V19.1471H62.4084V17.5153Z" fill="#2C79BE"/>
<path d="M62.4084 19.9629H64.0327V21.5946H62.4084V19.9629Z" fill="#2C79BE"/>
<path d="M62.4084 22.4105H64.0327V24.0423H62.4084V22.4105Z" fill="#2C79BE"/>
<path d="M67.2815 22.4105H68.9058V24.0423H67.2815V22.4105Z" fill="#2C79BE"/>
<path d="M67.2815 24.8582H68.9058V26.49H67.2815V24.8582Z" fill="#2C79BE"/>
<path d="M64.8449 19.9629H66.4693V21.5946H64.8449V19.9629Z" fill="#2C79BE"/>
<path d="M64.8449 22.4105H66.4693V24.0423H64.8449V22.4105Z" fill="#2C79BE"/>
<path d="M69.718 22.4105H71.3424V24.0423H69.718V22.4105Z" fill="#2C79BE"/>
<path d="M69.718 24.8582H71.3424V26.49H69.718V24.8582Z" fill="#2C79BE"/>
<path d="M69.718 27.3059H71.3424V28.9376H69.718V27.3059Z" fill="#2C79BE"/>
<path d="M69.718 29.7534H71.3424V31.3852H69.718V29.7534Z" fill="#2C79BE"/>
<path d="M64.8449 29.7534H66.4693V31.3852H64.8449V29.7534Z" fill="#2C79BE"/>
<path d="M69.718 32.2011H71.3424V33.8328H69.718V32.2011Z" fill="#2C79BE"/>
<path d="M64.8449 32.2011H66.4693V33.8328H64.8449V32.2011Z" fill="#2C79BE"/>
<path d="M67.2815 29.7534H68.9058V31.3852H67.2815V29.7534Z" fill="#2C79BE"/>
<path d="M62.4084 29.7534H64.0327V31.3852H62.4084V29.7534Z" fill="#2C79BE"/>
<path d="M59.9718 29.7534H61.5962V31.3852H59.9718V29.7534Z" fill="#2C79BE"/>
<path d="M62.4084 27.3059H64.0327V28.9376H62.4084V27.3059Z" fill="#2C79BE"/>
<path d="M59.9718 27.3059H61.5962V28.9376H59.9718V27.3059Z" fill="#2C79BE"/>
<path d="M67.2815 32.2011H68.9058V33.8328H67.2815V32.2011Z" fill="#2C79BE"/>
<path d="M62.4084 32.2011H64.0327V33.8328H62.4084V32.2011Z" fill="#2C79BE"/>
<path d="M72.1543 24.8582H73.7787V26.49H72.1543V24.8582Z" fill="#2C79BE"/>
<path d="M72.1543 27.3059H73.7787V28.9376H72.1543V27.3059Z" fill="#2C79BE"/>
<path d="M72.1543 29.7534H73.7787V31.3852H72.1543V29.7534Z" fill="#2C79BE"/>
<path d="M59.9718 15.0677H61.5962V16.6994H59.9718V15.0677Z" fill="#2C79BE"/>
<path d="M59.9718 17.5153H61.5962V19.1471H59.9718V17.5153Z" fill="#2C79BE"/>
<path d="M59.9718 19.9629H61.5962V21.5946H59.9718V19.9629Z" fill="#2C79BE"/>
<path d="M67.2815 12.62H68.9058V14.2518H67.2815V12.62Z" fill="#2C79BE"/>
<path d="M67.2815 15.0677H68.9058V16.6994H67.2815V15.0677Z" fill="#2C79BE"/>
<path d="M40.6422 15.0677H42.2666V16.6994H40.6422V15.0677Z" fill="#2C79BE"/>
<path d="M40.6422 19.9629H42.2666V21.5946H40.6422V19.9629Z" fill="#2C79BE"/>
<path d="M40.6422 24.8582H42.2666V26.49H40.6422V24.8582Z" fill="#2C79BE"/>
<path d="M40.6422 17.5153H42.2666V19.1471H40.6422V17.5153Z" fill="#2C79BE"/>
<path d="M40.6422 22.4105H42.2666V24.0423H40.6422V22.4105Z" fill="#2C79BE"/>
<path d="M40.6422 27.3059H42.2666V28.9376H40.6422V27.3059Z" fill="#2C79BE"/>
<path d="M40.6422 29.7534H42.2666V31.3852H40.6422V29.7534Z" fill="#2C79BE"/>
<path d="M45.5153 29.7534H47.1397V31.3852H45.5153V29.7534Z" fill="#2C79BE"/>
<path d="M50.3884 27.3059H52.0128V28.9376H50.3884V27.3059Z" fill="#2C79BE"/>
<path d="M45.5153 32.2011H47.1397V33.8328H45.5153V32.2011Z" fill="#2C79BE"/>
<path d="M50.3884 29.7534H52.0128V31.3852H50.3884V29.7534Z" fill="#2C79BE"/>
<path d="M45.5153 15.0677H47.1397V16.6994H45.5153V15.0677Z" fill="#2C79BE"/>
<path d="M45.5153 12.62H47.1397V14.2518H45.5153V12.62Z" fill="#2C79BE"/>
<path d="M50.3884 15.0677H52.0128V16.6994H50.3884V15.0677Z" fill="#2C79BE"/>
<path d="M50.3884 17.5153H52.0128V19.1471H50.3884V17.5153Z" fill="#2C79BE"/>
<path d="M50.3884 12.62H52.0128V14.2518H50.3884V12.62Z" fill="#2C79BE"/>
<path d="M43.0788 15.0677H44.7031V16.6994H43.0788V15.0677Z" fill="#2C79BE"/>
<path d="M43.0788 19.9629H44.7031V21.5946H43.0788V19.9629Z" fill="#2C79BE"/>
<path d="M43.0788 24.8582H44.7031V26.49H43.0788V24.8582Z" fill="#2C79BE"/>
<path d="M43.0788 17.5153H44.7031V19.1471H43.0788V17.5153Z" fill="#2C79BE"/>
<path d="M43.0788 22.4105H44.7031V24.0423H43.0788V22.4105Z" fill="#2C79BE"/>
<path d="M43.0788 27.3059H44.7031V28.9376H43.0788V27.3059Z" fill="#2C79BE"/>
<path d="M43.0788 29.7534H44.7031V31.3852H43.0788V29.7534Z" fill="#2C79BE"/>
<path d="M43.0788 32.2011H44.7031V33.8328H43.0788V32.2011Z" fill="#2C79BE"/>
<path d="M47.9519 29.7534H49.5762V31.3852H47.9519V29.7534Z" fill="#2C79BE"/>
<path d="M52.8247 27.3059H54.449V28.9376H52.8247V27.3059Z" fill="#2C79BE"/>
<path d="M47.9519 32.2011H49.5762V33.8328H47.9519V32.2011Z" fill="#2C79BE"/>
<path d="M52.8247 29.7534H54.449V31.3852H52.8247V29.7534Z" fill="#2C79BE"/>
<path d="M43.0788 12.62H44.7031V14.2518H43.0788V12.62Z" fill="#2C79BE"/>
<path d="M47.9519 15.0677H49.5762V16.6994H47.9519V15.0677Z" fill="#2C79BE"/>
<path d="M47.9519 12.62H49.5762V14.2518H47.9519V12.62Z" fill="#2C79BE"/>
<path d="M52.8247 15.0677H54.449V16.6994H52.8247V15.0677Z" fill="#2C79BE"/>
<path d="M52.8247 17.5153H54.449V19.1471H52.8247V17.5153Z" fill="#2C79BE"/>
<path d="M102.654 8.80589L104.045 6.43258C102.099 4.05926 89.7347 1.96407 89.7358 15.6466C89.7358 26.5354 98.766 26.2098 103.211 24.3022V21.2309L102.099 21.7893C101.543 22.0685 92.7918 25.4191 92.9307 15.0882C93.0414 6.82359 99.4595 7.45618 102.654 8.80589Z" fill="#2C79BE"/>
<path d="M106.961 5.25574H110.572V24.8007H106.961V5.25574Z" fill="#2C79BE"/>
<path d="M126.964 5.25574V8.32709H121.963V24.8007H118.351V8.32709H113.073V5.25574H126.964Z" fill="#2C79BE"/>
<path d="M127.655 5.25683L133.909 17.2063V24.8007H137.521L137.527 17.2063L143.782 5.25683L140.309 5.25737L135.718 14.0657L131.128 5.25737L127.655 5.25683Z" fill="#2C79BE"/>
<path d="M102.85 30.9887C101.012 29.8639 98.2784 29.0249 95.8438 29.3255C94.5951 29.4799 93.3073 29.9517 92.3146 30.9756C91.3067 32.017 90.7795 33.4484 90.7361 35.1711C90.6883 37.1114 91.463 38.5237 92.6303 39.5296C93.6925 40.4444 95.0605 41.0003 96.1465 41.4318L96.3678 41.5196C97.1197 41.818 97.7489 42.0678 98.2718 42.3384C98.5094 42.4617 98.7253 42.5893 98.9206 42.7284C99.488 43.1305 99.7321 43.5172 99.7658 44.1058C99.7918 44.563 99.73 44.9454 99.6095 45.2672C99.5141 45.5198 99.3817 45.7358 99.2266 45.9213C98.8534 46.3658 98.2577 46.7373 97.4484 46.9408C95.808 47.3532 93.5774 46.9915 91.7353 45.6021L89.7358 48.2838C92.3385 50.246 95.5921 50.8619 98.2567 50.192C99.6009 49.8543 100.863 49.1697 101.774 48.0825C102.33 47.4192 102.726 46.6413 102.935 45.7751C103.075 45.1925 103.13 44.5695 103.093 43.9149C102.987 42.0602 102.017 40.823 100.843 39.99C100.295 39.6011 99.6714 39.2798 99.0541 39.0038C98.8132 38.8958 98.5724 38.7943 98.338 38.6988C98.12 38.6099 97.9073 38.5259 97.7044 38.4457L97.6686 38.4326L97.3714 38.3153C96.2181 37.8566 95.373 37.4791 94.7991 36.9843C94.3304 36.5807 94.0472 36.1077 94.0678 35.2551C94.095 34.1848 94.4009 33.6262 94.7025 33.3147C95.0215 32.9858 95.5205 32.742 96.2507 32.652C97.7739 32.4638 99.7614 33.0213 101.118 33.8515L102.85 30.9887Z" fill="#2C79BE"/>
<path fill-rule="evenodd" clip-rule="evenodd" d="M129.982 30.1018C133.189 30.1018 135.729 32.7605 135.729 35.967C135.729 38.3306 134.348 40.3964 132.338 41.3194L137.674 49.5756H133.849L129.063 42.1115H126.286V49.6525H123.231V30.1018H129.982ZM126.286 33.4533H129.982C131.282 33.4533 132.397 34.5459 132.397 35.967C132.397 37.388 131.282 38.4806 129.982 38.4806H126.286V33.4533Z" fill="#2C79BE"/>
<path d="M119.761 31.2789L118.371 33.653C115.177 32.3028 108.761 31.6701 108.65 39.9371C108.511 50.2711 117.26 46.9195 117.815 46.6402L118.927 46.0816V49.1539C114.484 51.062 105.456 51.3877 105.456 40.4957C105.455 26.8091 117.815 28.9049 119.761 31.2789Z" fill="#2C79BE"/>
<path d="M140.451 30.1018H150.727V33.174H143.506V37.922H150.727V40.9943H143.506V46.5802H150.727V49.6525H140.451V30.1018Z" fill="#2C79BE"/>
<path d="M154.893 30.1018V49.6525H165.169V46.5802H157.948V40.9943H165.169V37.922H157.948V33.174H165.169V30.1018H154.893Z" fill="#2C79BE"/>
<path d="M169.891 30.1018L173.62 30.1012L182.667 45.2383V30.1018H185.722V49.6525H183.372L183.36 49.6705H181.751L172.946 34.9387V49.6525H169.891V30.1018Z" fill="#2C79BE"/>
</svg>
