<svg width="216" height="55" viewBox="0 0 216 55" fill="none" xmlns="http://www.w3.org/2000/svg">
<path d="M39.8492 38.7998C36.5911 38.7998 34.0917 37.9039 32.3957 36.0673C30.6997 34.2307 29.8294 31.6551 29.8294 28.318C29.8071 26.795 30.0749 25.2944 30.6105 23.861C31.0791 22.6068 31.8155 21.4869 32.7528 20.5463C33.6677 19.628 34.7835 18.9337 35.9885 18.4857C37.3052 18.0154 38.6888 17.769 40.0723 17.7914C40.8534 17.7914 41.6344 17.8586 42.3931 17.9706C43.018 18.0826 43.6205 18.2394 44.223 18.4186C44.6693 18.5529 45.0934 18.7321 45.5173 18.9337C45.7851 19.0457 46.0306 19.1801 46.2761 19.3368L44.9818 22.9875C44.2899 22.6292 43.5536 22.3604 42.8172 22.1588C41.9022 21.9125 40.9649 21.7781 40.0277 21.8005C39.3359 21.8005 38.6218 21.9125 37.9746 22.1588C37.3052 22.3828 36.7026 22.7635 36.2117 23.2787C35.6538 23.8386 35.2521 24.5329 34.9843 25.272C34.6496 26.2127 34.4934 27.2205 34.5157 28.2284C34.5157 29.1019 34.6273 29.9753 34.8281 30.8264C35.0066 31.5879 35.3414 32.2822 35.81 32.9093C36.2786 33.5141 36.9035 33.9844 37.5953 34.298C38.4433 34.6563 39.3359 34.8131 40.2509 34.7907C40.831 34.7907 41.4336 34.7459 42.0138 34.6787C42.5494 34.6115 43.018 34.4995 43.4197 34.4099C43.799 34.3204 44.156 34.1859 44.4908 34.0292L45.3165 33.6709L46.5662 37.2992C45.7182 37.7695 44.8032 38.1278 43.866 38.3518C42.5494 38.6653 41.2104 38.8222 39.8492 38.7998Z" fill="#2DAB66"/>
<path d="M55.207 22.6992C56.2781 22.6992 57.3493 22.9008 58.3758 23.2367C59.1345 23.5055 59.804 23.9759 60.3619 24.5582C60.8751 25.1405 61.2099 25.8348 61.3884 26.5739C61.5893 27.425 61.6785 28.2984 61.6339 29.1719L61.3438 38.1755L58.7551 38.5786C57.4162 38.713 56.0773 38.7578 54.7383 38.713C53.8457 38.713 52.9531 38.5786 52.0827 38.377C51.3464 38.1979 50.6546 37.8843 50.0297 37.4587C49.4719 37.0332 49.0479 36.4733 48.7577 35.8462C48.4453 35.0847 48.3114 34.2784 48.356 33.4721C48.3783 32.6883 48.5792 31.9043 48.9809 31.2325C49.338 30.6277 49.8512 30.135 50.4537 29.799C51.1009 29.4183 51.7927 29.1719 52.5291 29.06C53.3324 28.9255 54.1358 28.8584 54.9392 28.9032C55.4301 28.9032 55.9434 28.9479 56.4343 29.0151C56.7914 29.06 57.1484 29.1271 57.4832 29.2391V28.836C57.5278 28.1865 57.3046 27.537 56.8584 27.0442C56.4343 26.5739 55.6756 26.3276 54.5599 26.3051C53.8457 26.2603 53.1093 26.3051 52.3952 26.3947C51.7481 26.4395 51.1232 26.5739 50.5207 26.7755L50.119 23.2815C50.3645 23.2143 50.6769 23.1248 51.0562 23.0576L52.2836 22.856L53.7118 22.744C54.2028 22.6992 54.6937 22.6992 55.207 22.6992ZM55.14 35.3758H56.3674C56.6798 35.3758 56.9699 35.3534 57.2823 35.3087L57.3939 32.0387L56.6129 31.882L55.6533 31.7924L54.5152 31.8372C54.1805 31.8596 53.868 31.9491 53.5556 32.0836C53.2879 32.1955 53.087 32.3971 52.9085 32.621C52.7522 32.8674 52.663 33.181 52.663 33.4721C52.6407 34.1664 52.8415 34.6368 53.2879 34.9055C53.7341 35.1743 54.359 35.331 55.14 35.3758Z" fill="#2DAB66"/>
<path d="M74.6639 26.9539C74.2846 26.8419 73.8159 26.7524 73.3026 26.6403C72.7448 26.5284 72.1868 26.4836 71.629 26.4836L70.647 26.5508C70.357 26.5955 70.0892 26.6403 69.7991 26.7076V38.3987H65.4922V23.9303C66.3848 23.6167 67.2997 23.348 68.2146 23.1465C69.375 22.9001 70.5578 22.7881 71.7406 22.7881L72.5885 22.8329L73.5704 22.9449L74.5523 23.1241C74.8424 23.1912 75.1102 23.2584 75.378 23.3704L74.6639 26.9539Z" fill="#2DAB66"/>
<path d="M84.0096 18.0166C86.9999 18.0166 89.2984 18.5541 90.9052 19.6068C92.5119 20.6594 93.3153 22.4064 93.3153 24.8028C93.3153 27.1993 92.5119 28.9687 90.8829 30.0438C89.2538 31.1188 86.933 31.6563 83.9203 31.6563H82.5144V38.3978H77.9844V18.5541C79.0109 18.3526 80.0597 18.2182 81.1086 18.151C82.2244 18.0614 83.1839 18.0166 84.0096 18.0166ZM84.2997 21.8913H83.3402L82.5144 21.9585V27.7816H83.9203C85.4824 27.7816 86.6652 27.58 87.4685 27.1545C88.2719 26.729 88.6513 25.9227 88.6513 24.7581C88.6736 24.2653 88.562 23.795 88.3389 23.3694C88.138 23.0111 87.8256 22.6975 87.4685 22.496C87.0446 22.2496 86.5759 22.0928 86.1073 22.0256C85.5048 21.9361 84.9023 21.8913 84.2997 21.8913Z" fill="black"/>
<path d="M105.524 26.9539C105.144 26.8419 104.698 26.7524 104.162 26.6403C103.604 26.5284 103.046 26.4836 102.488 26.4836L101.529 26.5508C101.239 26.5955 100.949 26.6403 100.658 26.7076V38.3987H96.3516V23.9303C97.1326 23.6615 98.0476 23.3928 99.0964 23.1465C100.257 22.9001 101.417 22.7881 102.6 22.7881L103.448 22.8329L104.43 22.9449L105.412 23.1241C105.702 23.1912 105.992 23.2584 106.26 23.3704L105.524 26.9539Z" fill="black"/>
<path d="M113.293 18.689C113.293 19.4953 113.047 20.1224 112.534 20.5703C111.485 21.4662 109.967 21.4662 108.918 20.5703C108.383 20.1 108.093 19.4057 108.137 18.689C108.115 17.9723 108.405 17.3004 108.918 16.8076C109.967 15.9118 111.485 15.9118 112.534 16.8076C113.047 17.3004 113.337 17.9723 113.293 18.689ZM112.891 38.3983H108.584V23.1012H112.891V38.3983Z" fill="black"/>
<path d="M116.215 30.7587C116.215 29.6837 116.393 28.631 116.75 27.6232C117.442 25.6971 118.893 24.1516 120.767 23.3454C121.816 22.8974 122.932 22.6735 124.07 22.6959C124.828 22.6959 125.565 22.7631 126.301 22.9198C126.971 23.0766 127.64 23.2782 128.265 23.5469L127.373 26.9961C126.926 26.8393 126.48 26.7049 126.034 26.593C125.498 26.4809 124.962 26.4138 124.427 26.4138C123.155 26.4138 122.195 26.8169 121.57 27.6232C120.945 28.4295 120.634 29.4597 120.634 30.7587C120.634 32.0578 120.923 33.2 121.503 33.9615C122.083 34.723 123.132 35.0814 124.583 35.0814C125.141 35.0814 125.721 35.0365 126.279 34.947C126.837 34.835 127.395 34.6782 127.931 34.4767L128.533 38.0153C127.931 38.2617 127.306 38.4409 126.658 38.5753C125.833 38.7321 125.007 38.7992 124.159 38.7992C122.932 38.8216 121.704 38.62 120.567 38.1721C119.629 37.7914 118.781 37.2091 118.089 36.4699C117.442 35.7309 116.951 34.8798 116.661 33.9391C116.371 32.9088 116.215 31.8338 116.215 30.7587Z" fill="black"/>
<path d="M129.986 30.8741C129.964 29.6647 130.165 28.4553 130.611 27.313C130.99 26.3723 131.526 25.4988 132.239 24.7597C132.909 24.0878 133.712 23.5727 134.583 23.2367C135.431 22.8784 136.346 22.6992 137.283 22.6992C139.448 22.6992 141.144 23.3711 142.416 24.6925C143.688 26.0139 144.291 27.9849 144.291 30.5606C144.291 30.8069 144.268 31.0756 144.268 31.3892C144.268 31.7028 144.224 31.9491 144.201 32.1731H134.404C134.493 33.0242 134.94 33.8081 135.654 34.3008C136.39 34.816 137.372 35.0847 138.622 35.0847C139.403 35.0847 140.184 35.0175 140.943 34.8608C141.59 34.7487 142.215 34.5696 142.818 34.3232L143.398 37.8619C143.085 37.9963 142.773 38.1083 142.461 38.1979C142.036 38.3322 141.612 38.4218 141.166 38.5114C140.675 38.601 140.162 38.6682 139.649 38.713C139.113 38.7802 138.577 38.8026 138.042 38.8026C136.814 38.825 135.609 38.6234 134.449 38.1979C132.552 37.4811 131.08 35.9582 130.455 34.0097C130.142 33.0018 129.986 31.9267 129.986 30.8741ZM140.117 29.2167C140.095 28.8584 140.028 28.5 139.939 28.1416C139.827 27.8057 139.649 27.4921 139.448 27.201C139.225 26.9323 138.934 26.7083 138.6 26.5515C138.198 26.3499 137.774 26.2603 137.328 26.2827C136.904 26.2827 136.48 26.3499 136.1 26.5291C135.765 26.6635 135.475 26.8874 135.23 27.1786C134.984 27.4473 134.806 27.7609 134.694 28.1192C134.56 28.4776 134.471 28.836 134.404 29.2167H140.117Z" fill="black"/>
<path d="M180.794 31.2768C179.142 32.1278 177.223 31.9487 176.866 31.0752C176.509 30.2017 177.714 29.485 178.629 28.5667C179.544 27.6485 180.928 27.2005 181.932 28.0292C182.936 28.8579 182.869 30.2017 180.794 31.2768ZM174.634 33.7404C173.853 34.5691 173.072 34.5467 171.488 34.5691C170.729 34.5915 164.615 34.5691 163.834 34.5467C162.316 34.4795 161.49 34.4795 160.709 33.6732C159.928 32.8669 160.553 32.195 161.669 32.195L173.697 32.2622C174.813 32.2846 175.415 32.9341 174.634 33.7404ZM158.455 31.0752C158.121 31.9487 156.18 32.1278 154.55 31.2768C152.453 30.2017 152.542 28.7235 153.39 28.0292C154.238 27.3349 155.8 27.6933 156.693 28.5667C157.586 29.4402 158.768 30.2689 158.455 31.0752ZM159.772 19.8319C161.356 18.8913 163.767 18.5329 167.739 18.5329C171.711 18.5329 174.701 19.0257 176.375 20.0559C178.049 21.0862 178.941 22.9227 179.053 24.7816C177.223 25.4087 160.084 25.4535 156.581 24.7816C157.206 22.6763 158.032 20.8622 159.772 19.8319ZM185.658 30.2241C185.39 28.9027 184.877 27.6485 184.141 26.5286C183.85 26.0806 183.516 25.6775 183.137 25.2968C184.297 25.1624 184.565 24.2441 184.632 23.505C184.698 22.7659 183.605 22.7211 182.825 22.7659C182.2 22.7883 181.619 23.0347 181.173 23.4602C180.749 21.6685 179.901 19.608 177.692 18.2642C176.554 17.5922 175.304 17.1219 173.987 16.8755C173.295 16.7412 172.536 16.6292 171.688 16.5396C170.84 16.45 169.212 16.3828 167.739 16.3828C166.266 16.3828 165.106 16.4276 163.99 16.5396C163.231 16.6068 162.495 16.7412 161.758 16.8979C160.575 17.1219 159.437 17.5475 158.411 18.1522C156.537 19.2944 155.599 21.3773 154.729 23.2586C154.327 22.9675 153.836 22.7883 153.345 22.7659C152.542 22.7211 151.538 22.7659 151.515 23.505C151.493 24.2441 151.471 25.028 152.497 25.252C152.14 25.6327 151.805 26.0582 151.493 26.4838C150.667 27.6261 150.154 28.9699 150.02 30.3809C149.909 31.7471 150.377 33.0909 151.314 34.0988C151.359 35.4425 151.381 37.1671 151.404 37.8166C151.471 39.0037 152.096 38.9813 154.305 38.9365C155.689 38.9141 157.273 39.25 157.295 37.5702C157.318 37.1671 157.295 36.7416 157.273 36.3384C163.209 37.3911 172.648 37.5479 178.629 36.4281C178.607 36.7416 178.607 37.0999 178.607 37.5702C178.651 39.25 180.214 38.9141 181.619 38.9365C183.806 38.9813 184.453 39.0037 184.498 37.8166C184.52 37.1895 184.542 35.5098 184.587 34.1659C185.502 33.0685 185.904 31.6351 185.658 30.2241Z" fill="#2DAB66"/>
</svg>
