<svg width="32" height="33" viewBox="0 0 32 33" fill="none" xmlns="http://www.w3.org/2000/svg">
<path d="M20.912 0.5H11.089C2.125 0.5 0 2.625 0 11.589V21.412C0 30.376 2.125 32.501 11.089 32.501H20.912C29.876 32.501 32.001 30.376 32.001 21.412V11.589C32.001 2.625 29.855 0.5 20.912 0.5ZM25.834 23.328H23.511C22.631 23.328 22.36 22.63 20.777 21.026C19.402 19.693 18.793 19.516 18.454 19.516C17.975 19.516 17.839 19.651 17.839 20.308V22.407C17.839 22.97 17.662 23.308 16.172 23.308C13.708 23.308 10.974 21.818 9.057 19.042C6.166 14.974 5.375 11.927 5.375 11.297C5.375 10.958 5.51 10.641 6.161 10.641H8.489C9.078 10.641 9.302 10.912 9.531 11.542C10.682 14.865 12.599 17.776 13.39 17.776C13.682 17.776 13.817 17.641 13.817 16.896V13.464C13.728 11.881 12.895 11.745 12.895 11.183C12.895 10.912 13.119 10.641 13.478 10.641H17.139C17.634 10.641 17.816 10.912 17.816 11.495V16.125C17.816 16.625 18.04 16.802 18.175 16.802C18.467 16.802 18.717 16.625 19.258 16.083C20.93 14.208 22.128 11.317 22.128 11.317C22.284 10.978 22.555 10.661 23.144 10.661H25.472C26.17 10.661 26.326 11.02 26.17 11.52C25.878 12.874 23.029 16.895 23.029 16.895C22.784 17.301 22.69 17.478 23.029 17.931C23.279 18.27 24.092 18.973 24.633 19.603C25.628 20.733 26.393 21.681 26.597 22.337C26.826 22.988 26.488 23.327 25.831 23.327L25.834 23.328Z" fill="white"/>
</svg>
