<?xml version="1.0" standalone="no"?>
<!DOCTYPE svg PUBLIC "-//W3C//DTD SVG 20010904//EN"
 "http://www.w3.org/TR/2001/REC-SVG-20010904/DTD/svg10.dtd">
<svg version="1.0" xmlns="http://www.w3.org/2000/svg"
 width="792.000000pt" height="792.000000pt" viewBox="0 0 792.000000 792.000000"
 preserveAspectRatio="xMidYMid meet">
<metadata>
Created by potrace 1.14, written by Peter Selinger 2001-2017
</metadata>
<g transform="translate(0.000000,792.000000) scale(0.100000,-0.100000)"
fill="#000000" stroke="none">
<path d="M7309 6516 c-2 -2 -51 -7 -109 -11 -58 -3 -127 -8 -155 -11 -27 -3
-93 -7 -145 -9 -52 -2 -95 -5 -95 -6 0 -1 -44 -5 -170 -13 -224 -15 -348 -26
-354 -31 -2 -2 -12 0 -22 6 -11 5 -19 6 -19 2 0 -5 -12 -9 -27 -9 -57 -2 -259
-15 -293 -19 -33 -3 -119 -10 -275 -20 -93 -6 -268 -19 -425 -30 -41 -3 -105
-8 -141 -10 -37 -2 -95 -6 -130 -9 -35 -3 -100 -8 -144 -11 -44 -3 -111 -8
-150 -11 -133 -9 -180 -13 -275 -19 -52 -3 -115 -8 -140 -10 -25 -2 -85 -7
-135 -10 -49 -3 -115 -7 -145 -10 -30 -3 -86 -7 -125 -9 -89 -6 -233 -16 -310
-22 -33 -2 -94 -6 -135 -9 -41 -3 -102 -7 -135 -10 -79 -6 -204 -14 -285 -20
-36 -2 -94 -6 -130 -9 -36 -3 -101 -8 -145 -11 -44 -3 -114 -8 -155 -11 -41
-3 -104 -7 -140 -9 -36 -2 -65 -4 -65 -5 0 -1 -27 -3 -60 -5 -33 -2 -98 -7
-145 -10 -47 -3 -116 -8 -155 -11 -376 -25 -381 -26 -461 -63 -114 -53 -210
-168 -245 -291 -8 -30 -13 -134 -14 -321 l-2 -277 186 4 c102 2 285 6 406 9
121 3 315 7 430 10 116 2 307 7 425 10 430 11 629 16 850 20 124 3 302 7 395
9 94 3 298 8 455 12 360 8 504 9 555 1 22 -4 58 -10 80 -13 122 -18 252 -77
327 -147 71 -68 123 -173 154 -317 4 -19 9 -534 11 -1145 4 -1464 3 -1407 28
-1411 44 -7 102 -15 130 -18 92 -10 162 -19 180 -22 11 -2 45 -7 75 -10 30 -3
66 -7 80 -9 14 -3 41 -6 60 -9 19 -3 58 -8 85 -12 28 -4 64 -8 80 -10 17 -2
46 -5 65 -8 19 -2 58 -7 85 -10 28 -3 66 -8 85 -11 19 -2 58 -7 85 -10 28 -3
68 -8 90 -11 51 -8 88 -13 145 -18 25 -3 54 -7 65 -10 12 -2 52 -7 90 -11 38
-3 72 -8 75 -10 4 -2 35 -6 70 -9 34 -3 77 -8 94 -11 109 -17 142 -20 241 -19
90 0 120 4 164 22 136 57 231 156 283 298 l21 59 2 1850 c1 1100 -2 1866 -8
1890 -13 58 -13 57 -26 90 -51 131 -156 234 -293 287 -38 15 -83 22 -159 24
-58 2 -107 2 -110 0z"/>
<path d="M817 4784 c-1 -1 -24 -4 -52 -7 -152 -16 -284 -113 -344 -252 -29
-69 -36 -125 -36 -295 l0 -145 35 -2 c32 -2 72 -3 110 -3 57 1 435 -8 435 -10
0 -1 108 -4 240 -5 132 -2 268 -6 303 -9 141 -12 277 -66 364 -145 49 -44 118
-140 118 -164 0 -7 4 -17 9 -22 11 -13 31 -89 36 -140 2 -22 5 -425 6 -896 l2
-856 61 -12 c34 -7 68 -13 76 -15 8 -2 26 -6 40 -9 14 -4 39 -8 55 -11 17 -2
55 -10 85 -16 30 -6 66 -13 80 -16 14 -2 39 -7 55 -11 40 -9 34 -8 90 -18 28
-4 55 -9 60 -10 39 -9 180 -37 200 -41 54 -9 71 -12 95 -18 32 -8 79 -17 108
-21 13 -2 45 -8 70 -14 65 -14 134 -27 182 -34 14 -2 30 -6 36 -10 6 -3 28 -8
50 -11 21 -3 64 -10 94 -16 56 -12 82 -17 123 -24 12 -2 81 -16 152 -31 72
-14 141 -28 155 -30 14 -2 50 -9 80 -15 30 -7 68 -14 83 -16 16 -2 33 -7 39
-10 6 -4 65 -8 132 -10 197 -5 335 37 435 135 48 47 99 123 106 159 2 12 8 29
13 39 6 10 10 21 10 26 0 4 4 32 7 62 9 67 10 2360 1 2430 -3 28 -8 60 -11 73
-3 12 -7 31 -9 42 -15 64 -74 160 -140 226 -79 79 -136 113 -246 152 l-75 26
-1758 0 c-967 1 -1759 0 -1760 0z"/>
<path d="M2 2936 c3 -639 4 -694 21 -731 29 -65 41 -89 52 -102 6 -7 23 -30
40 -51 60 -77 183 -149 292 -170 32 -7 105 -21 163 -33 58 -11 114 -22 125
-24 42 -7 131 -24 155 -30 42 -9 344 -66 365 -69 11 -2 29 -6 40 -9 11 -4 37
-9 58 -11 l37 -5 0 784 c0 758 -1 785 -21 842 -46 135 -154 239 -283 272 -25
6 -104 14 -174 16 -70 3 -164 7 -209 9 -61 3 -83 1 -83 -9 0 -8 -13 -11 -37
-9 -36 2 -284 12 -461 18 l-83 3 3 -691z"/>
</g>
</svg>
